<svg xmlns="http://www.w3.org/2000/svg" version="1.1" xmlns:xlink="http://www.w3.org/1999/xlink" xmlns:svgjs="http://svgjs.dev/svgjs" width="1500" height="1500" viewBox="160 340 1200 800"><rect width="1500" height="1500" fill="#000000"></rect><g transform="matrix(0.6666666666666666,0,0,0.6666666666666666,249.39393939393938,624.5739251929049)"><svg viewBox="0 0 396 100" data-background-color="#000000" preserveAspectRatio="xMidYMid meet" height="378" width="1500" xmlns="http://www.w3.org/2000/svg" xmlns:xlink="http://www.w3.org/1999/xlink"><g id="tight-bounds" transform="matrix(1,0,0,1,0.2400000000000091,-0.22774809242258698)"><svg viewBox="0 0 395.52 100.45549618484519" height="100.45549618484519" width="395.52"><g><svg viewBox="0 0 542.5589606916128 137.80094459397725" height="100.45549618484519" width="395.52"><g transform="matrix(1,0,0,1,145.0613606916129,0)"><svg viewBox="0 0 397.4975999999999 137.80094459397725" height="137.80094459397725" width="397.4975999999999"><g id="textblocktransform"><svg viewBox="0 0 397.4975999999999 137.80094459397725" height="137.80094459397725" width="397.4975999999999" id="textblock"><g></g><g transform="matrix(1,0,0,1,0.9887999999999693,0)"><svg viewBox="0 0 395.52 94.18408602150537" height="94.18408602150537" width="395.52"><g transform="matrix(1,0,0,1,0,0)"><svg width="395.52" viewBox="2.5 -38.6 223.18 53.150000000000006" height="94.18408602150537" data-palette-color="url(#5d07723e-b05f-4185-bd11-714cc622aedc)"></svg></g></svg></g><g transform="matrix(1,0,0,1,0,122.68884615935312)"><svg viewBox="0 0 191.62944000000002 15.112098434624148" height="15.112098434624148" width="191.62944000000002"><g transform="matrix(1,0,0,1,0,0)"><svg width="191.62944000000002" viewBox="2.1 -37.75 548.68 43.28" height="15.112098434624148" data-palette-color="url(#7c3f2f77-16f9-45dd-97d8-ace493914d2e)"></svg></g></svg></g></svg></g></svg></g><g transform="matrix(1,0,0,1,0,43.90821981493005)"><svg viewBox="0 0 122.82675839999999 49.98450496411714" height="49.98450496411714" width="122.82675839999999"><g><svg xmlns="http://www.w3.org/2000/svg" xmlns:xlink="http://www.w3.org/1999/xlink" version="1.1" x="0" y="0" viewBox="0.021999999999999797 27.720999999999997 99.95299999999999 40.67600000000001" style="enable-background:new 0 0 100 100;" xml:space="preserve" height="49.98450496411714" width="122.82675839999999" class="icon-icon-0" data-fill-palette-color="accent" id="icon-0"></svg></g></svg></g></svg></g><defs></defs><mask id="9bc7acbf-6d75-4004-a1aa-42352e035d3f"><g id="SvgjsG1046"><svg viewBox="0 0 395.52 100.45549618484519" height="100.45549618484519" width="395.52"><g><svg viewBox="0 0 542.5589606916128 137.80094459397725" height="100.45549618484519" width="395.52"><g transform="matrix(1,0,0,1,145.0613606916129,0)"><svg viewBox="0 0 397.4975999999999 137.80094459397725" height="137.80094459397725" width="397.4975999999999"><g id="SvgjsG1045"><svg viewBox="0 0 397.4975999999999 137.80094459397725" height="137.80094459397725" width="397.4975999999999" id="SvgjsSvg1044"><g><rect width="397.4975999999999" height="8.493618075396128" x="0" y="104.18965705273118" fill="white" opacity="1" stroke-width="0" stroke="transparent" fill-opacity="1" class="rect-qz-0" rx="1%" id="SvgjsRect1043" data-palette-color="url(#5d07723e-b05f-4185-bd11-714cc622aedc)"></rect></g><g transform="matrix(1,0,0,1,0.9887999999999693,0)"><svg viewBox="0 0 395.52 94.18408602150537" height="94.18408602150537" width="395.52"><g transform="matrix(1,0,0,1,0,0)"><svg width="395.52" viewBox="2.5 -38.6 223.18 53.150000000000006" height="94.18408602150537" data-palette-color="url(#5d07723e-b05f-4185-bd11-714cc622aedc)"><path d="M28.5-7L29.45-7 29.45 1 28.5 1Q28.5 0.65 28.35 0.3 28.2-0.05 27.95-0.05L27.95-0.05 2.5-0.05 2.5-1Q2.85-1 3.23-1.15 3.6-1.3 3.6-1.55L3.6-1.55 3.6-36.05Q3.6-36.3 3.23-36.45 2.85-36.6 2.5-36.6L2.5-36.6 2.5-37.55 26.65-37.55Q26.9-37.55 27.05-37.9 27.2-38.25 27.2-38.6L27.2-38.6 28.15-38.6 28.15-30.6 27.2-30.6Q27.2-30.95 27.05-31.3 26.9-31.65 26.65-31.65L26.65-31.65 10.05-31.65 10.05-22.85 24.2-22.85Q24.45-22.85 24.6-23.2 24.75-23.55 24.75-23.9L24.75-23.9 25.7-23.9 25.7-15.9 24.75-15.9Q24.75-16.25 24.6-16.6 24.45-16.95 24.2-16.95L24.2-16.95 10.05-16.95 10.05-5.95 27.95-5.95Q28.2-5.95 28.35-6.3 28.5-6.65 28.5-7L28.5-7ZM47.9-23.6Q51.45-23.6 54.25-22.08 57.05-20.55 58.62-17.78 60.2-15 60.2-11.4L60.2-11.4Q60.2-7.75 58.62-5 57.05-2.25 54.22-0.75 51.4 0.75 47.75 0.75L47.75 0.75Q43.6 0.75 40.3-2.05L40.3-2.05 40.3 13.05Q40.3 13.3 40.67 13.45 41.05 13.6 41.4 13.6L41.4 13.6 41.4 14.55 32.95 14.55 32.95 13.6Q33.3 13.6 33.67 13.45 34.05 13.3 34.05 13.05L34.05 13.05 34.05-21.5Q34.05-21.75 33.67-21.9 33.3-22.05 32.95-22.05L32.95-22.05 32.95-23 40.3-23 40.3-20.9Q43.7-23.6 47.9-23.6L47.9-23.6ZM47.25-4.6Q50.2-4.6 52.2-6.4 54.2-8.2 54.2-11.3L54.2-11.3Q54.2-14.3 52.25-16.23 50.3-18.15 47.25-18.15L47.25-18.15Q44.1-18.15 42.12-16.23 40.15-14.3 40.15-11.25L40.15-11.25Q40.15-9.55 41.07-8 42-6.45 43.62-5.53 45.25-4.6 47.25-4.6L47.25-4.6ZM69.3-27.2Q67.7-27.2 66.57-28.3 65.45-29.4 65.45-31.05L65.45-31.05Q65.45-32.6 66.57-33.73 67.7-34.85 69.3-34.85L69.3-34.85Q70.9-34.85 72-33.73 73.1-32.6 73.1-31.05L73.1-31.05Q73.1-29.4 72-28.3 70.9-27.2 69.3-27.2L69.3-27.2ZM66.05-21.5Q66.05-21.75 65.67-21.9 65.3-22.05 64.95-22.05L64.95-22.05 64.95-23 73.55-23 73.55-22.05Q73.2-22.05 72.82-21.9 72.45-21.75 72.45-21.5L72.45-21.5 72.45-1.5Q72.45-1.25 72.82-1.1 73.2-0.95 73.55-0.95L73.55-0.95 73.55 0 64.95 0 64.95-0.95Q65.3-0.95 65.67-1.1 66.05-1.25 66.05-1.5L66.05-1.5 66.05-21.5ZM90.24 1.05Q87.04 1.05 84.29-0.55 81.54-2.15 79.92-4.9 78.29-7.65 78.29-10.9L78.29-10.9Q78.29-14.75 79.92-17.68 81.54-20.6 84.29-22.18 87.04-23.75 90.34-23.75L90.34-23.75Q92.69-23.75 94.37-23.2 96.04-22.65 97.07-21.88 98.09-21.1 99.64-19.7L99.64-19.7Q99.74-19.6 99.89-19.6L99.89-19.6Q100.09-19.6 100.37-19.75 100.64-19.9 100.79-20.05L100.79-20.05 101.44-19.35 96.04-14.35 95.39-15.05Q95.64-15.25 95.82-15.63 95.99-16 95.84-16.2L95.84-16.2Q94.04-18.4 90.89-18.4L90.89-18.4Q88.04-18.4 86.12-16.5 84.19-14.6 84.19-11.55L84.19-11.55Q84.19-8.4 86.04-6.5 87.89-4.6 90.89-4.6L90.89-4.6Q92.39-4.6 93.34-4.98 94.29-5.35 95.49-6.4L95.49-6.4Q95.59-6.5 95.59-6.65L95.59-6.65Q95.59-6.95 95.24-7.3L95.24-7.3 95.84-8.05 101.24-3.55 100.64-2.85Q99.84-3.3 99.54-3L99.54-3Q97.69-0.95 95.67 0.05 93.64 1.05 90.24 1.05L90.24 1.05ZM130.69-7L131.64-7 131.64 1 130.69 1Q130.69 0.65 130.54 0.3 130.39-0.05 130.14-0.05L130.14-0.05 104.69-0.05 104.69-1Q105.04-1 105.42-1.15 105.79-1.3 105.79-1.55L105.79-1.55 105.79-36.05Q105.79-36.3 105.42-36.45 105.04-36.6 104.69-36.6L104.69-36.6 104.69-37.55 128.84-37.55Q129.09-37.55 129.24-37.9 129.39-38.25 129.39-38.6L129.39-38.6 130.34-38.6 130.34-30.6 129.39-30.6Q129.39-30.95 129.24-31.3 129.09-31.65 128.84-31.65L128.84-31.65 112.24-31.65 112.24-22.85 126.39-22.85Q126.64-22.85 126.79-23.2 126.94-23.55 126.94-23.9L126.94-23.9 127.89-23.9 127.89-15.9 126.94-15.9Q126.94-16.25 126.79-16.6 126.64-16.95 126.39-16.95L126.39-16.95 112.24-16.95 112.24-5.95 130.14-5.95Q130.39-5.95 130.54-6.3 130.69-6.65 130.69-7L130.69-7ZM144.64 0.75Q142.09 0.75 139.71-0.3 137.34-1.35 134.94-3.3L134.94-3.3Q134.84-3.4 134.69-3.4L134.69-3.4Q134.29-3.4 133.84-2.95L133.84-2.95 133.14-3.55 138.14-9.25 138.84-8.6Q138.64-8.35 138.51-8 138.39-7.65 138.59-7.45L138.59-7.45Q140.24-5.95 141.66-5.23 143.09-4.5 144.64-4.5L144.64-4.5Q148.49-4.5 148.49-7.05L148.49-7.05Q148.49-8.2 147.31-8.83 146.14-9.45 143.39-10.2L143.39-10.2Q139.84-11.15 138.24-12.68 136.64-14.2 136.64-16.85L136.64-16.85Q136.64-20 138.69-21.98 140.74-23.95 144.29-23.95L144.29-23.95Q146.09-23.95 147.54-23.4 148.99-22.85 151.04-21.45L151.04-21.45Q151.09-21.4 151.24-21.4L151.24-21.4Q151.49-21.4 151.74-21.55 151.99-21.7 152.09-21.85L152.09-21.85 152.84-21.2 148.34-16.1 147.64-16.7Q147.84-16.9 147.91-17.23 147.99-17.55 147.79-17.75L147.79-17.75Q146.89-18.45 146.06-18.8 145.24-19.15 144.24-19.15L144.24-19.15Q143.19-19.15 142.59-18.75 141.99-18.35 141.99-17.55L141.99-17.55Q141.99-16.9 142.34-16.5 142.69-16.1 143.61-15.7 144.54-15.3 146.44-14.7L146.44-14.7Q149.94-13.65 151.94-11.78 153.94-9.9 153.94-7.15L153.94-7.15Q153.94-3.1 151.39-1.18 148.84 0.75 144.64 0.75L144.64 0.75ZM169.94-24L170.89-24 170.89-16.4 169.94-16.4Q169.94-16.75 169.79-17.07 169.64-17.4 169.39-17.4L169.39-17.4 166.14-17.4 166.14-1.5Q166.14-1.25 166.49-1.1 166.84-0.95 167.19-0.95L167.19-0.95 167.19 0 159.04 0 159.04-0.95Q159.39-0.95 159.74-1.1 160.09-1.25 160.09-1.5L160.09-1.5 160.09-17.4 157.69-17.4Q157.44-17.4 157.29-17.07 157.14-16.75 157.14-16.4L157.14-16.4 156.19-16.4 156.19-24 157.14-24Q157.14-23.65 157.29-23.33 157.44-23 157.69-23L157.69-23 160.09-23 160.09-28.85Q160.09-29.1 159.74-29.25 159.39-29.4 159.04-29.4L159.04-29.4 159.04-30.35 167.19-30.35 167.19-29.4Q166.84-29.4 166.49-29.25 166.14-29.1 166.14-28.85L166.14-28.85 166.14-23 169.39-23Q169.64-23 169.79-23.33 169.94-23.65 169.94-24L169.94-24ZM195.88-20.05Q198.08-18.6 199.43-16.05 200.78-13.5 200.78-10.8L200.78-10.8Q200.78-7.2 199.26-4.48 197.73-1.75 194.88-0.28 192.03 1.2 188.13 1.2L188.13 1.2Q184.48 1.2 181.63-0.23 178.78-1.65 177.16-4.33 175.53-7 175.53-10.55L175.53-10.55Q175.53-13.65 176.88-16.15 178.23-18.65 180.58-20.2L180.58-20.2Q178.73-21.5 177.66-23.55 176.58-25.6 176.58-27.8L176.58-27.8Q176.58-30.9 178.06-33.38 179.53-35.85 182.18-37.23 184.83-38.6 188.13-38.6L188.13-38.6Q191.78-38.6 194.38-37.18 196.98-35.75 198.33-33.25 199.68-30.75 199.68-27.55L199.68-27.55Q199.68-25.3 198.68-23.33 197.68-21.35 195.88-20.05L195.88-20.05ZM188.13-33Q185.63-33 184.21-31.53 182.78-30.05 182.78-28.05L182.78-28.05Q182.78-25.7 184.21-24.18 185.63-22.65 188.13-22.65L188.13-22.65Q190.73-22.65 192.06-24.1 193.38-25.55 193.38-27.95L193.38-27.95Q193.38-30.05 192.01-31.53 190.63-33 188.13-33L188.13-33ZM188.23-4.55Q191.18-4.55 192.83-6.35 194.48-8.15 194.48-10.85L194.48-10.85Q194.48-13.45 192.76-15.18 191.03-16.9 188.18-16.9L188.18-16.9Q186.28-16.9 184.86-16.05 183.43-15.2 182.66-13.83 181.88-12.45 181.88-10.9L181.88-10.9Q181.88-8.3 183.58-6.43 185.28-4.55 188.23-4.55L188.23-4.55ZM216.38 0.75Q213.83 0.75 211.46-0.3 209.08-1.35 206.68-3.3L206.68-3.3Q206.58-3.4 206.43-3.4L206.43-3.4Q206.03-3.4 205.58-2.95L205.58-2.95 204.88-3.55 209.88-9.25 210.58-8.6Q210.38-8.35 210.26-8 210.13-7.65 210.33-7.45L210.33-7.45Q211.98-5.95 213.41-5.23 214.83-4.5 216.38-4.5L216.38-4.5Q220.23-4.5 220.23-7.05L220.23-7.05Q220.23-8.2 219.06-8.83 217.88-9.45 215.13-10.2L215.13-10.2Q211.58-11.15 209.98-12.68 208.38-14.2 208.38-16.85L208.38-16.85Q208.38-20 210.43-21.98 212.48-23.95 216.03-23.95L216.03-23.95Q217.83-23.95 219.28-23.4 220.73-22.85 222.78-21.45L222.78-21.45Q222.83-21.4 222.98-21.4L222.98-21.4Q223.23-21.4 223.48-21.55 223.73-21.7 223.83-21.85L223.83-21.85 224.58-21.2 220.08-16.1 219.38-16.7Q219.58-16.9 219.66-17.23 219.73-17.55 219.53-17.75L219.53-17.75Q218.63-18.45 217.81-18.8 216.98-19.15 215.98-19.15L215.98-19.15Q214.93-19.15 214.33-18.75 213.73-18.35 213.73-17.55L213.73-17.55Q213.73-16.9 214.08-16.5 214.43-16.1 215.36-15.7 216.28-15.3 218.18-14.7L218.18-14.7Q221.68-13.65 223.68-11.78 225.68-9.9 225.68-7.15L225.68-7.15Q225.68-3.1 223.13-1.18 220.58 0.75 216.38 0.75L216.38 0.75Z" opacity="1" transform="matrix(1,0,0,1,0,0)" fill="white" class="wordmark-text-0" id="SvgjsPath1042"></path></svg></g></svg></g><g transform="matrix(1,0,0,1,0,122.68884615935312)"><svg viewBox="0 0 191.62944000000002 15.112098434624148" height="15.112098434624148" width="191.62944000000002"><g transform="matrix(1,0,0,1,0,0)"><svg width="191.62944000000002" viewBox="2.1 -37.75 548.68 43.28" height="15.112098434624148" data-palette-color="url(#7c3f2f77-16f9-45dd-97d8-ace493914d2e)"><path d="M2.1-33.75L2.1 0 16.28 0Q22.65 0 25.41-3.65 28.18-7.3 28.18-16.88L28.18-16.88Q28.18-26.48 25.43-30.11 22.68-33.75 16.28-33.75L16.28-33.75 2.1-33.75ZM14.93-3.55L7.18-3.55 7.18-30.2 14.93-30.2Q19.03-30.2 21.05-27.76 23.08-25.33 23.08-16.88L23.08-16.88Q23.08-8.45 21.05-6 19.03-3.55 14.93-3.55L14.93-3.55ZM50.55-15.83L50.55-15.83 55.6-15.83Q55.6-23.15 53.64-26.51 51.67-29.88 46.62-29.88L46.62-29.88Q41.72-29.88 38.82-27.2 35.92-24.53 35.92-20.73L35.92-20.73 37.87-19.3Q37.87-22.03 39.72-24.19 41.57-26.35 44.8-26.35L44.8-26.35Q47.62-26.35 49.09-24.14 50.55-21.93 50.55-15.83ZM32.85-29.63L32.85 0 37.9 0 37.9-23.9 36.82-29.63 32.85-29.63ZM72.42 0.25L72.42 0.25 72.42-3.1Q68.62-3.1 66.5-5.88L66.5-5.88Q64.34-8.6 64.34-14.88L64.34-14.88Q64.34-21.5 66.57-24.05L66.57-24.05Q68.77-26.58 72.34-26.58L72.34-26.58Q76.02-26.58 78.07-24.18L78.07-24.18Q79.84-21.93 80.05-16.48L80.05-16.48 63.8-16.48 63.8-13.33 85.05-13.33Q85.15-14.08 85.15-14.95L85.15-14.95Q85.15-22.38 82.2-26.15L82.2-26.15Q79.22-29.93 72.34-29.93L72.34-29.93Q65.67-29.93 62.57-26.15L62.57-26.15Q59.45-22.4 59.45-14.88L59.45-14.88Q59.45-7.78 62.5-3.75L62.5-3.75Q65.52 0.25 72.42 0.25ZM72.42-3.1L72.42-3.1 72.42 0.25Q76.17 0.25 78.62-0.73L78.62-0.73Q81.07-1.7 82.62-3.85L82.62-3.85Q84.15-5.98 84.57-9.03L84.57-9.03 80.02-10.25Q79.59-8.05 78.75-6.3L78.75-6.3Q77.84-4.55 76.22-3.83L76.22-3.83Q74.59-3.1 72.42-3.1ZM99.69 0.28L99.69 0.28Q101.87 0.28 103.58-0.11 105.29-0.5 106.54-1.11 107.79-1.73 108.59-2.43 109.39-3.13 109.72-3.75L109.72-3.75 110.14 0 114.37 0 114.37-18.85Q114.37-22.85 112.93-25.28 111.49-27.7 108.74-28.8 105.99-29.9 102.04-29.9L102.04-29.9Q99.69-29.9 97.64-29.41 95.59-28.93 93.98-27.88 92.37-26.83 91.28-25.13 90.19-23.43 89.79-20.98L89.79-20.98 94.74-19.65Q95.12-22.13 96.11-23.61 97.09-25.1 98.62-25.78 100.14-26.45 102.07-26.45L102.07-26.45Q104.29-26.45 105.92-25.7 107.54-24.95 108.42-23.34 109.29-21.73 109.29-19.1L109.29-19.1 109.29-17.43 99.62-17.43Q97.29-17.43 95.42-17 93.54-16.57 92.23-15.59 90.92-14.6 90.22-12.91 89.52-11.23 89.52-8.68L89.52-8.68Q89.52-6.03 90.23-4.29 90.94-2.55 92.31-1.55 93.67-0.55 95.53-0.14 97.39 0.28 99.69 0.28ZM100.79-3.05L100.79-3.05Q99.52-3.05 98.39-3.31 97.27-3.58 96.42-4.2 95.57-4.83 95.11-5.95 94.64-7.08 94.64-8.88L94.64-8.88Q94.64-10.63 95.12-11.75 95.59-12.88 96.43-13.49 97.27-14.1 98.39-14.34 99.52-14.58 100.79-14.58L100.79-14.58 109.22-14.58 109.22-6.85Q108.79-5.93 107.67-5.05 106.54-4.17 104.81-3.61 103.07-3.05 100.79-3.05ZM119.79-29.63L119.79 0 124.87 0 124.87-24.7 123.77-29.63 119.79-29.63ZM136.37-17.78L136.37 0 141.42 0 141.42-18.13Q141.42-23.18 139.62-26.54 137.82-29.9 132.77-29.9L132.77-29.9Q128.32-29.9 125.23-26.61 122.14-23.33 122.14-19L122.14-19 124.82-17.65Q124.82-21.75 126.57-24.05 128.32-26.35 131.14-26.35L131.14-26.35Q133.94-26.35 135.15-24.24 136.37-22.13 136.37-17.78L136.37-17.78ZM152.87-17.78L152.87 0 157.92 0 157.92-18.13Q157.92-23.18 156.14-26.54 154.37-29.9 149.34-29.9L149.34-29.9Q144.87-29.9 141.78-26.59 138.69-23.28 138.69-19L138.69-19 141.39-17.65Q141.39-21.75 143.14-24.05 144.89-26.35 147.69-26.35L147.69-26.35Q150.52-26.35 151.69-24.24 152.87-22.13 152.87-17.78L152.87-17.78ZM176.86-33.75L176.86 0 181.96 0 181.96-33.75 176.86-33.75ZM201.73 0.33L201.73 0.33Q204.48 0.33 206.98-0.3L206.98-0.3 206.98-3.73Q205.26-3.15 203.43-3.15L203.43-3.15Q201.38-3.15 200.26-4.03 199.13-4.9 199.13-7.63L199.13-7.63 199.13-26.08 208.93-26.08 208.93-29.63 199.13-29.63 199.13-36.33 194.06-36.33 194.06-29.63 187.13-29.63 187.13-26.08 194.06-26.08 194.06-6.45Q194.06-2.55 196.26-1.11 198.46 0.33 201.73 0.33ZM214.68-2.83L211.96 5.53 215.01 5.53 219.63-2.83 214.68-2.83ZM237.83-33.75L237.83 0 257.73 0 257.73-3.53 242.93-3.53 242.93-33.75 237.83-33.75ZM263.17-29.65L263.17 0 268.25 0 268.25-29.65 263.17-29.65ZM268.25-37.75L263.17-37.75 263.17-33.27 268.25-33.27 268.25-37.75ZM286.85 0.2L286.85 0.2Q292.7 0.2 295.75-1.8 298.8-3.8 298.8-7.9L298.8-7.9Q298.8-12.35 295.73-14.04 292.67-15.73 288.15-16.65L288.15-16.65Q284.32-17.53 281.83-18.48 279.35-19.43 279.35-22.03L279.35-22.03Q279.35-24.1 280.98-25.33 282.62-26.55 286-26.55L286-26.55Q289.5-26.55 291.53-24.85 293.57-23.15 294-19.88L294-19.88 298.47-21.4Q297.75-25.95 294.61-27.91 291.47-29.88 286.05-29.88L286.05-29.88Q280.6-29.88 277.47-27.86 274.35-25.85 274.35-22L274.35-22Q274.35-17.78 277.18-15.96 280.02-14.15 284.55-13.18L284.55-13.18Q288.52-12.3 291.15-11.34 293.77-10.38 293.77-7.55L293.77-7.55Q293.77-5.58 292.06-4.36 290.35-3.15 286.92-3.15L286.92-3.15Q283.3-3.15 281.16-4.78 279.02-6.4 278.6-10.15L278.6-10.15 274.12-8.63Q274.9-3.65 278.2-1.73 281.5 0.2 286.85 0.2ZM315.87 0.33L315.87 0.33Q318.62 0.33 321.12-0.3L321.12-0.3 321.12-3.73Q319.39-3.15 317.57-3.15L317.57-3.15Q315.52-3.15 314.39-4.03 313.27-4.9 313.27-7.63L313.27-7.63 313.27-26.08 323.07-26.08 323.07-29.63 313.27-29.63 313.27-36.33 308.19-36.33 308.19-29.63 301.27-29.63 301.27-26.08 308.19-26.08 308.19-6.45Q308.19-2.55 310.39-1.11 312.59 0.33 315.87 0.33ZM340.99-33.75L340.99 0 346.09 0 346.09-33.75 340.99-33.75ZM365.86 0.33L365.86 0.33Q368.61 0.33 371.11-0.3L371.11-0.3 371.11-3.73Q369.39-3.15 367.56-3.15L367.56-3.15Q365.51-3.15 364.39-4.03 363.26-4.9 363.26-7.63L363.26-7.63 363.26-26.08 373.06-26.08 373.06-29.63 363.26-29.63 363.26-36.33 358.19-36.33 358.19-29.63 351.26-29.63 351.26-26.08 358.19-26.08 358.19-6.45Q358.19-2.55 360.39-1.11 362.59 0.33 365.86 0.33ZM378.81-2.83L376.08 5.53 379.13 5.53 383.76-2.83 378.81-2.83ZM401.95-33.75L401.95 0 421.85 0 421.85-3.53 407.05-3.53 407.05-33.75 401.95-33.75ZM427.3-29.65L427.3 0 432.38 0 432.38-29.65 427.3-29.65ZM432.38-37.75L427.3-37.75 427.3-33.27 432.38-33.27 432.38-37.75ZM437.4-29.65L446.75 0 453.7 0 463.1-29.65 457.8-29.65 450.27-3.53 450.22-3.53 442.72-29.65 437.4-29.65ZM478.69 0.25L478.69 0.25 478.69-3.1Q474.9-3.1 472.77-5.88L472.77-5.88Q470.62-8.6 470.62-14.88L470.62-14.88Q470.62-21.5 472.85-24.05L472.85-24.05Q475.05-26.58 478.62-26.58L478.62-26.58Q482.3-26.58 484.35-24.18L484.35-24.18Q486.12-21.93 486.32-16.48L486.32-16.48 470.07-16.48 470.07-13.33 491.32-13.33Q491.42-14.08 491.42-14.95L491.42-14.95Q491.42-22.38 488.47-26.15L488.47-26.15Q485.5-29.93 478.62-29.93L478.62-29.93Q471.94-29.93 468.85-26.15L468.85-26.15Q465.72-22.4 465.72-14.88L465.72-14.88Q465.72-7.78 468.77-3.75L468.77-3.75Q471.8 0.25 478.69 0.25ZM478.69-3.1L478.69-3.1 478.69 0.25Q482.44 0.25 484.9-0.73L484.9-0.73Q487.35-1.7 488.9-3.85L488.9-3.85Q490.42-5.98 490.85-9.03L490.85-9.03 486.3-10.25Q485.87-8.05 485.02-6.3L485.02-6.3Q484.12-4.55 482.5-3.83L482.5-3.83Q480.87-3.1 478.69-3.1ZM509.97-33.75L509.97 0 515.07 0 515.07-33.75 509.97-33.75ZM534.84 0.33L534.84 0.33Q537.59 0.33 540.09-0.3L540.09-0.3 540.09-3.73Q538.36-3.15 536.54-3.15L536.54-3.15Q534.49-3.15 533.36-4.03 532.24-4.9 532.24-7.63L532.24-7.63 532.24-26.08 542.04-26.08 542.04-29.63 532.24-29.63 532.24-36.33 527.16-36.33 527.16-29.63 520.24-29.63 520.24-26.08 527.16-26.08 527.16-6.45Q527.16-2.55 529.36-1.11 531.56 0.33 534.84 0.33ZM550.78-4.65L546.01-4.65 546.01 0 550.78 0 550.78-4.65Z" opacity="1" transform="matrix(1,0,0,1,0,0)" fill="black" class="slogan-text-1" id="SvgjsPath1041"></path></svg></g></svg></g></svg></g></svg></g><g transform="matrix(1,0,0,1,0,43.90821981493005)"><svg viewBox="0 0 122.82675839999999 49.98450496411714" height="49.98450496411714" width="122.82675839999999"><g><svg xmlns="http://www.w3.org/2000/svg" xmlns:xlink="http://www.w3.org/1999/xlink" version="1.1" x="0" y="0" viewBox="0.021999999999999797 27.720999999999997 99.95299999999999 40.67600000000001" style="enable-background:new 0 0 100 100;" xml:space="preserve" height="49.98450496411714" width="122.82675839999999" class="icon-icon-0" data-fill-palette-color="accent" id="SvgjsSvg1040"><path d="M99.975 59.486c0 1.768-1.429 3.198-3.196 3.198H58.779c-0.901 0-1.714-0.371-2.296-0.975l-25.08-25.901L5.478 61.748c-0.58 0.58-1.378 0.937-2.261 0.937-1.766 0-3.195-1.431-3.195-3.198 0-0.883 0.358-1.682 0.935-2.259L29.18 28.989c0.579-0.577 1.379-0.937 2.261-0.937 0.901 0 1.715 0.373 2.295 0.973l7.348 7.592h19.7v-8.896h8.479v8.896H79.55c0.957 0 1.818 0.423 2.405 1.089l17.229 19.673C99.677 57.943 99.975 58.683 99.975 59.486zM22.589 58.375h6.974v-6.978h-6.974V58.375zM33.104 58.375h6.973v-6.978h-6.973V58.375zM22.589 68.361h6.974v-6.978h-6.974V68.361zM33.104 68.397h6.973v-6.979h-6.973V68.397z" fill="black"></path></svg></g></svg></g></svg></g><defs><mask></mask></defs></svg><rect width="395.52" height="100.45549618484519" fill="black" stroke="none" visibility="hidden"></rect></g></mask><linearGradient x1="0" x2="1" y1="0.578" y2="0.595" id="5d07723e-b05f-4185-bd11-714cc622aedc"><stop stop-color="#6ee2f5" offset="0"></stop><stop stop-color="#6454f0" offset="1"></stop></linearGradient><rect width="395.52" height="100.45549618484519" fill="url(#5d07723e-b05f-4185-bd11-714cc622aedc)" mask="url(#9bc7acbf-6d75-4004-a1aa-42352e035d3f)" data-fill-palette-color="primary"></rect><mask id="1c1c9292-40c3-4968-8311-448e70d47d92"><g id="SvgjsG1058"><svg viewBox="0 0 395.52 100.45549618484519" height="100.45549618484519" width="395.52"><g><svg viewBox="0 0 542.5589606916128 137.80094459397725" height="100.45549618484519" width="395.52"><g transform="matrix(1,0,0,1,145.0613606916129,0)"><svg viewBox="0 0 397.4975999999999 137.80094459397725" height="137.80094459397725" width="397.4975999999999"><g id="SvgjsG1057"><svg viewBox="0 0 397.4975999999999 137.80094459397725" height="137.80094459397725" width="397.4975999999999" id="SvgjsSvg1056"><g></g><g transform="matrix(1,0,0,1,0.9887999999999693,0)"><svg viewBox="0 0 395.52 94.18408602150537" height="94.18408602150537" width="395.52"><g transform="matrix(1,0,0,1,0,0)"><svg width="395.52" viewBox="2.5 -38.6 223.18 53.150000000000006" height="94.18408602150537" data-palette-color="url(#5d07723e-b05f-4185-bd11-714cc622aedc)"></svg></g></svg></g><g transform="matrix(1,0,0,1,0,122.68884615935312)"><svg viewBox="0 0 191.62944000000002 15.112098434624148" height="15.112098434624148" width="191.62944000000002"><g transform="matrix(1,0,0,1,0,0)"><svg width="191.62944000000002" viewBox="2.1 -37.75 548.68 43.28" height="15.112098434624148" data-palette-color="url(#7c3f2f77-16f9-45dd-97d8-ace493914d2e)"><path d="M2.1-33.75L2.1 0 16.28 0Q22.65 0 25.41-3.65 28.18-7.3 28.18-16.88L28.18-16.88Q28.18-26.48 25.43-30.11 22.68-33.75 16.28-33.75L16.28-33.75 2.1-33.75ZM14.93-3.55L7.18-3.55 7.18-30.2 14.93-30.2Q19.03-30.2 21.05-27.76 23.08-25.33 23.08-16.88L23.08-16.88Q23.08-8.45 21.05-6 19.03-3.55 14.93-3.55L14.93-3.55ZM50.55-15.83L50.55-15.83 55.6-15.83Q55.6-23.15 53.64-26.51 51.67-29.88 46.62-29.88L46.62-29.88Q41.72-29.88 38.82-27.2 35.92-24.53 35.92-20.73L35.92-20.73 37.87-19.3Q37.87-22.03 39.72-24.19 41.57-26.35 44.8-26.35L44.8-26.35Q47.62-26.35 49.09-24.14 50.55-21.93 50.55-15.83ZM32.85-29.63L32.85 0 37.9 0 37.9-23.9 36.82-29.63 32.85-29.63ZM72.42 0.25L72.42 0.25 72.42-3.1Q68.62-3.1 66.5-5.88L66.5-5.88Q64.34-8.6 64.34-14.88L64.34-14.88Q64.34-21.5 66.57-24.05L66.57-24.05Q68.77-26.58 72.34-26.58L72.34-26.58Q76.02-26.58 78.07-24.18L78.07-24.18Q79.84-21.93 80.05-16.48L80.05-16.48 63.8-16.48 63.8-13.33 85.05-13.33Q85.15-14.08 85.15-14.95L85.15-14.95Q85.15-22.38 82.2-26.15L82.2-26.15Q79.22-29.93 72.34-29.93L72.34-29.93Q65.67-29.93 62.57-26.15L62.57-26.15Q59.45-22.4 59.45-14.88L59.45-14.88Q59.45-7.78 62.5-3.75L62.5-3.75Q65.52 0.25 72.42 0.25ZM72.42-3.1L72.42-3.1 72.42 0.25Q76.17 0.25 78.62-0.73L78.62-0.73Q81.07-1.7 82.62-3.85L82.62-3.85Q84.15-5.98 84.57-9.03L84.57-9.03 80.02-10.25Q79.59-8.05 78.75-6.3L78.75-6.3Q77.84-4.55 76.22-3.83L76.22-3.83Q74.59-3.1 72.42-3.1ZM99.69 0.28L99.69 0.28Q101.87 0.28 103.58-0.11 105.29-0.5 106.54-1.11 107.79-1.73 108.59-2.43 109.39-3.13 109.72-3.75L109.72-3.75 110.14 0 114.37 0 114.37-18.85Q114.37-22.85 112.93-25.28 111.49-27.7 108.74-28.8 105.99-29.9 102.04-29.9L102.04-29.9Q99.69-29.9 97.64-29.41 95.59-28.93 93.98-27.88 92.37-26.83 91.28-25.13 90.19-23.43 89.79-20.98L89.79-20.98 94.74-19.65Q95.12-22.13 96.11-23.61 97.09-25.1 98.62-25.78 100.14-26.45 102.07-26.45L102.07-26.45Q104.29-26.45 105.92-25.7 107.54-24.95 108.42-23.34 109.29-21.73 109.29-19.1L109.29-19.1 109.29-17.43 99.62-17.43Q97.29-17.43 95.42-17 93.54-16.57 92.23-15.59 90.92-14.6 90.22-12.91 89.52-11.23 89.52-8.68L89.52-8.68Q89.52-6.03 90.23-4.29 90.94-2.55 92.31-1.55 93.67-0.55 95.53-0.14 97.39 0.28 99.69 0.28ZM100.79-3.05L100.79-3.05Q99.52-3.05 98.39-3.31 97.27-3.58 96.42-4.2 95.57-4.83 95.11-5.95 94.64-7.08 94.64-8.88L94.64-8.88Q94.64-10.63 95.12-11.75 95.59-12.88 96.43-13.49 97.27-14.1 98.39-14.34 99.52-14.58 100.79-14.58L100.79-14.58 109.22-14.58 109.22-6.85Q108.79-5.93 107.67-5.05 106.54-4.17 104.81-3.61 103.07-3.05 100.79-3.05ZM119.79-29.63L119.79 0 124.87 0 124.87-24.7 123.77-29.63 119.79-29.63ZM136.37-17.78L136.37 0 141.42 0 141.42-18.13Q141.42-23.18 139.62-26.54 137.82-29.9 132.77-29.9L132.77-29.9Q128.32-29.9 125.23-26.61 122.14-23.33 122.14-19L122.14-19 124.82-17.65Q124.82-21.75 126.57-24.05 128.32-26.35 131.14-26.35L131.14-26.35Q133.94-26.35 135.15-24.24 136.37-22.13 136.37-17.78L136.37-17.78ZM152.87-17.78L152.87 0 157.92 0 157.92-18.13Q157.92-23.18 156.14-26.54 154.37-29.9 149.34-29.9L149.34-29.9Q144.87-29.9 141.78-26.59 138.69-23.28 138.69-19L138.69-19 141.39-17.65Q141.39-21.75 143.14-24.05 144.89-26.35 147.69-26.35L147.69-26.35Q150.52-26.35 151.69-24.24 152.87-22.13 152.87-17.78L152.87-17.78ZM176.86-33.75L176.86 0 181.96 0 181.96-33.75 176.86-33.75ZM201.73 0.33L201.73 0.33Q204.48 0.33 206.98-0.3L206.98-0.3 206.98-3.73Q205.26-3.15 203.43-3.15L203.43-3.15Q201.38-3.15 200.26-4.03 199.13-4.9 199.13-7.63L199.13-7.63 199.13-26.08 208.93-26.08 208.93-29.63 199.13-29.63 199.13-36.33 194.06-36.33 194.06-29.63 187.13-29.63 187.13-26.08 194.06-26.08 194.06-6.45Q194.06-2.55 196.26-1.11 198.46 0.33 201.73 0.33ZM214.68-2.83L211.96 5.53 215.01 5.53 219.63-2.83 214.68-2.83ZM237.83-33.75L237.83 0 257.73 0 257.73-3.53 242.93-3.53 242.93-33.75 237.83-33.75ZM263.17-29.65L263.17 0 268.25 0 268.25-29.65 263.17-29.65ZM268.25-37.75L263.17-37.75 263.17-33.27 268.25-33.27 268.25-37.75ZM286.85 0.2L286.85 0.2Q292.7 0.2 295.75-1.8 298.8-3.8 298.8-7.9L298.8-7.9Q298.8-12.35 295.73-14.04 292.67-15.73 288.15-16.65L288.15-16.65Q284.32-17.53 281.83-18.48 279.35-19.43 279.35-22.03L279.35-22.03Q279.35-24.1 280.98-25.33 282.62-26.55 286-26.55L286-26.55Q289.5-26.55 291.53-24.85 293.57-23.15 294-19.88L294-19.88 298.47-21.4Q297.75-25.95 294.61-27.91 291.47-29.88 286.05-29.88L286.05-29.88Q280.6-29.88 277.47-27.86 274.35-25.85 274.35-22L274.35-22Q274.35-17.78 277.18-15.96 280.02-14.15 284.55-13.18L284.55-13.18Q288.52-12.3 291.15-11.34 293.77-10.38 293.77-7.55L293.77-7.55Q293.77-5.58 292.06-4.36 290.35-3.15 286.92-3.15L286.92-3.15Q283.3-3.15 281.16-4.78 279.02-6.4 278.6-10.15L278.6-10.15 274.12-8.63Q274.9-3.65 278.2-1.73 281.5 0.2 286.85 0.2ZM315.87 0.33L315.87 0.33Q318.62 0.33 321.12-0.3L321.12-0.3 321.12-3.73Q319.39-3.15 317.57-3.15L317.57-3.15Q315.52-3.15 314.39-4.03 313.27-4.9 313.27-7.63L313.27-7.63 313.27-26.08 323.07-26.08 323.07-29.63 313.27-29.63 313.27-36.33 308.19-36.33 308.19-29.63 301.27-29.63 301.27-26.08 308.19-26.08 308.19-6.45Q308.19-2.55 310.39-1.11 312.59 0.33 315.87 0.33ZM340.99-33.75L340.99 0 346.09 0 346.09-33.75 340.99-33.75ZM365.86 0.33L365.86 0.33Q368.61 0.33 371.11-0.3L371.11-0.3 371.11-3.73Q369.39-3.15 367.56-3.15L367.56-3.15Q365.51-3.15 364.39-4.03 363.26-4.9 363.26-7.63L363.26-7.63 363.26-26.08 373.06-26.08 373.06-29.63 363.26-29.63 363.26-36.33 358.19-36.33 358.19-29.63 351.26-29.63 351.26-26.08 358.19-26.08 358.19-6.45Q358.19-2.55 360.39-1.11 362.59 0.33 365.86 0.33ZM378.81-2.83L376.08 5.53 379.13 5.53 383.76-2.83 378.81-2.83ZM401.95-33.75L401.95 0 421.85 0 421.85-3.53 407.05-3.53 407.05-33.75 401.95-33.75ZM427.3-29.65L427.3 0 432.38 0 432.38-29.65 427.3-29.65ZM432.38-37.75L427.3-37.75 427.3-33.27 432.38-33.27 432.38-37.75ZM437.4-29.65L446.75 0 453.7 0 463.1-29.65 457.8-29.65 450.27-3.53 450.22-3.53 442.72-29.65 437.4-29.65ZM478.69 0.25L478.69 0.25 478.69-3.1Q474.9-3.1 472.77-5.88L472.77-5.88Q470.62-8.6 470.62-14.88L470.62-14.88Q470.62-21.5 472.85-24.05L472.85-24.05Q475.05-26.58 478.62-26.58L478.62-26.58Q482.3-26.58 484.35-24.18L484.35-24.18Q486.12-21.93 486.32-16.48L486.32-16.48 470.07-16.48 470.07-13.33 491.32-13.33Q491.42-14.08 491.42-14.95L491.42-14.95Q491.42-22.38 488.47-26.15L488.47-26.15Q485.5-29.93 478.62-29.93L478.62-29.93Q471.94-29.93 468.85-26.15L468.85-26.15Q465.72-22.4 465.72-14.88L465.72-14.88Q465.72-7.78 468.77-3.75L468.77-3.75Q471.8 0.25 478.69 0.25ZM478.69-3.1L478.69-3.1 478.69 0.25Q482.44 0.25 484.9-0.73L484.9-0.73Q487.35-1.7 488.9-3.85L488.9-3.85Q490.42-5.98 490.85-9.03L490.85-9.03 486.3-10.25Q485.87-8.05 485.02-6.3L485.02-6.3Q484.12-4.55 482.5-3.83L482.5-3.83Q480.87-3.1 478.69-3.1ZM509.97-33.75L509.97 0 515.07 0 515.07-33.75 509.97-33.75ZM534.84 0.33L534.84 0.33Q537.59 0.33 540.09-0.3L540.09-0.3 540.09-3.73Q538.36-3.15 536.54-3.15L536.54-3.15Q534.49-3.15 533.36-4.03 532.24-4.9 532.24-7.63L532.24-7.63 532.24-26.08 542.04-26.08 542.04-29.63 532.24-29.63 532.24-36.33 527.16-36.33 527.16-29.63 520.24-29.63 520.24-26.08 527.16-26.08 527.16-6.45Q527.16-2.55 529.36-1.11 531.56 0.33 534.84 0.33ZM550.78-4.65L546.01-4.65 546.01 0 550.78 0 550.78-4.65Z" opacity="1" transform="matrix(1,0,0,1,0,0)" fill="white" class="slogan-text-1" id="SvgjsPath1055"></path></svg></g></svg></g></svg></g></svg></g><g transform="matrix(1,0,0,1,0,43.90821981493005)"><svg viewBox="0 0 122.82675839999999 49.98450496411714" height="49.98450496411714" width="122.82675839999999"><g><svg xmlns="http://www.w3.org/2000/svg" xmlns:xlink="http://www.w3.org/1999/xlink" version="1.1" x="0" y="0" viewBox="0.021999999999999797 27.720999999999997 99.95299999999999 40.67600000000001" style="enable-background:new 0 0 100 100;" xml:space="preserve" height="49.98450496411714" width="122.82675839999999" class="icon-icon-0" data-fill-palette-color="accent" id="SvgjsSvg1054"><path d="M99.975 59.486c0 1.768-1.429 3.198-3.196 3.198H58.779c-0.901 0-1.714-0.371-2.296-0.975l-25.08-25.901L5.478 61.748c-0.58 0.58-1.378 0.937-2.261 0.937-1.766 0-3.195-1.431-3.195-3.198 0-0.883 0.358-1.682 0.935-2.259L29.18 28.989c0.579-0.577 1.379-0.937 2.261-0.937 0.901 0 1.715 0.373 2.295 0.973l7.348 7.592h19.7v-8.896h8.479v8.896H79.55c0.957 0 1.818 0.423 2.405 1.089l17.229 19.673C99.677 57.943 99.975 58.683 99.975 59.486zM22.589 58.375h6.974v-6.978h-6.974V58.375zM33.104 58.375h6.973v-6.978h-6.973V58.375zM22.589 68.361h6.974v-6.978h-6.974V68.361zM33.104 68.397h6.973v-6.979h-6.973V68.397z" fill="black"></path></svg></g></svg></g></svg></g><defs><mask></mask></defs><mask><g id="SvgjsG1053"><svg viewBox="0 0 395.52 100.45549618484519" height="100.45549618484519" width="395.52"><g><svg viewBox="0 0 542.5589606916128 137.80094459397725" height="100.45549618484519" width="395.52"><g transform="matrix(1,0,0,1,145.0613606916129,0)"><svg viewBox="0 0 397.4975999999999 137.80094459397725" height="137.80094459397725" width="397.4975999999999"><g id="SvgjsG1052"><svg viewBox="0 0 397.4975999999999 137.80094459397725" height="137.80094459397725" width="397.4975999999999" id="SvgjsSvg1051"><g><rect width="397.4975999999999" height="8.493618075396128" x="0" y="104.18965705273118" fill="black" opacity="1" stroke-width="0" stroke="transparent" fill-opacity="1" class="rect-qz-0" rx="1%" id="SvgjsRect1050" data-palette-color="url(#5d07723e-b05f-4185-bd11-714cc622aedc)"></rect></g><g transform="matrix(1,0,0,1,0.9887999999999693,0)"><svg viewBox="0 0 395.52 94.18408602150537" height="94.18408602150537" width="395.52"><g transform="matrix(1,0,0,1,0,0)"><svg width="395.52" viewBox="2.5 -38.6 223.18 53.150000000000006" height="94.18408602150537" data-palette-color="url(#5d07723e-b05f-4185-bd11-714cc622aedc)"><path d="M28.5-7L29.45-7 29.45 1 28.5 1Q28.5 0.65 28.35 0.3 28.2-0.05 27.95-0.05L27.95-0.05 2.5-0.05 2.5-1Q2.85-1 3.23-1.15 3.6-1.3 3.6-1.55L3.6-1.55 3.6-36.05Q3.6-36.3 3.23-36.45 2.85-36.6 2.5-36.6L2.5-36.6 2.5-37.55 26.65-37.55Q26.9-37.55 27.05-37.9 27.2-38.25 27.2-38.6L27.2-38.6 28.15-38.6 28.15-30.6 27.2-30.6Q27.2-30.95 27.05-31.3 26.9-31.65 26.65-31.65L26.65-31.65 10.05-31.65 10.05-22.85 24.2-22.85Q24.45-22.85 24.6-23.2 24.75-23.55 24.75-23.9L24.75-23.9 25.7-23.9 25.7-15.9 24.75-15.9Q24.75-16.25 24.6-16.6 24.45-16.95 24.2-16.95L24.2-16.95 10.05-16.95 10.05-5.95 27.95-5.95Q28.2-5.95 28.35-6.3 28.5-6.65 28.5-7L28.5-7ZM47.9-23.6Q51.45-23.6 54.25-22.08 57.05-20.55 58.62-17.78 60.2-15 60.2-11.4L60.2-11.4Q60.2-7.75 58.62-5 57.05-2.25 54.22-0.75 51.4 0.75 47.75 0.75L47.75 0.75Q43.6 0.75 40.3-2.05L40.3-2.05 40.3 13.05Q40.3 13.3 40.67 13.45 41.05 13.6 41.4 13.6L41.4 13.6 41.4 14.55 32.95 14.55 32.95 13.6Q33.3 13.6 33.67 13.45 34.05 13.3 34.05 13.05L34.05 13.05 34.05-21.5Q34.05-21.75 33.67-21.9 33.3-22.05 32.95-22.05L32.95-22.05 32.95-23 40.3-23 40.3-20.9Q43.7-23.6 47.9-23.6L47.9-23.6ZM47.25-4.6Q50.2-4.6 52.2-6.4 54.2-8.2 54.2-11.3L54.2-11.3Q54.2-14.3 52.25-16.23 50.3-18.15 47.25-18.15L47.25-18.15Q44.1-18.15 42.12-16.23 40.15-14.3 40.15-11.25L40.15-11.25Q40.15-9.55 41.07-8 42-6.45 43.62-5.53 45.25-4.6 47.25-4.6L47.25-4.6ZM69.3-27.2Q67.7-27.2 66.57-28.3 65.45-29.4 65.45-31.05L65.45-31.05Q65.45-32.6 66.57-33.73 67.7-34.85 69.3-34.85L69.3-34.85Q70.9-34.85 72-33.73 73.1-32.6 73.1-31.05L73.1-31.05Q73.1-29.4 72-28.3 70.9-27.2 69.3-27.2L69.3-27.2ZM66.05-21.5Q66.05-21.75 65.67-21.9 65.3-22.05 64.95-22.05L64.95-22.05 64.95-23 73.55-23 73.55-22.05Q73.2-22.05 72.82-21.9 72.45-21.75 72.45-21.5L72.45-21.5 72.45-1.5Q72.45-1.25 72.82-1.1 73.2-0.95 73.55-0.95L73.55-0.95 73.55 0 64.95 0 64.95-0.95Q65.3-0.95 65.67-1.1 66.05-1.25 66.05-1.5L66.05-1.5 66.05-21.5ZM90.24 1.05Q87.04 1.05 84.29-0.55 81.54-2.15 79.92-4.9 78.29-7.65 78.29-10.9L78.29-10.9Q78.29-14.75 79.92-17.68 81.54-20.6 84.29-22.18 87.04-23.75 90.34-23.75L90.34-23.75Q92.69-23.75 94.37-23.2 96.04-22.65 97.07-21.88 98.09-21.1 99.64-19.7L99.64-19.7Q99.74-19.6 99.89-19.6L99.89-19.6Q100.09-19.6 100.37-19.75 100.64-19.9 100.79-20.05L100.79-20.05 101.44-19.35 96.04-14.35 95.39-15.05Q95.64-15.25 95.82-15.63 95.99-16 95.84-16.2L95.84-16.2Q94.04-18.4 90.89-18.4L90.89-18.4Q88.04-18.4 86.12-16.5 84.19-14.6 84.19-11.55L84.19-11.55Q84.19-8.4 86.04-6.5 87.89-4.6 90.89-4.6L90.89-4.6Q92.39-4.6 93.34-4.98 94.29-5.35 95.49-6.4L95.49-6.4Q95.59-6.5 95.59-6.65L95.59-6.65Q95.59-6.95 95.24-7.3L95.24-7.3 95.84-8.05 101.24-3.55 100.64-2.85Q99.84-3.3 99.54-3L99.54-3Q97.69-0.95 95.67 0.05 93.64 1.05 90.24 1.05L90.24 1.05ZM130.69-7L131.64-7 131.64 1 130.69 1Q130.69 0.65 130.54 0.3 130.39-0.05 130.14-0.05L130.14-0.05 104.69-0.05 104.69-1Q105.04-1 105.42-1.15 105.79-1.3 105.79-1.55L105.79-1.55 105.79-36.05Q105.79-36.3 105.42-36.45 105.04-36.6 104.69-36.6L104.69-36.6 104.69-37.55 128.84-37.55Q129.09-37.55 129.24-37.9 129.39-38.25 129.39-38.6L129.39-38.6 130.34-38.6 130.34-30.6 129.39-30.6Q129.39-30.95 129.24-31.3 129.09-31.65 128.84-31.65L128.84-31.65 112.24-31.65 112.24-22.85 126.39-22.85Q126.64-22.85 126.79-23.2 126.94-23.55 126.94-23.9L126.94-23.9 127.89-23.9 127.89-15.9 126.94-15.9Q126.94-16.25 126.79-16.6 126.64-16.95 126.39-16.95L126.39-16.95 112.24-16.95 112.24-5.95 130.14-5.95Q130.39-5.95 130.54-6.3 130.69-6.65 130.69-7L130.69-7ZM144.64 0.75Q142.09 0.75 139.71-0.3 137.34-1.35 134.94-3.3L134.94-3.3Q134.84-3.4 134.69-3.4L134.69-3.4Q134.29-3.4 133.84-2.95L133.84-2.95 133.14-3.55 138.14-9.25 138.84-8.6Q138.64-8.35 138.51-8 138.39-7.65 138.59-7.45L138.59-7.45Q140.24-5.95 141.66-5.23 143.09-4.5 144.64-4.5L144.64-4.5Q148.49-4.5 148.49-7.05L148.49-7.05Q148.49-8.2 147.31-8.83 146.14-9.45 143.39-10.2L143.39-10.2Q139.84-11.15 138.24-12.68 136.64-14.2 136.64-16.85L136.64-16.85Q136.64-20 138.69-21.98 140.74-23.95 144.29-23.95L144.29-23.95Q146.09-23.95 147.54-23.4 148.99-22.85 151.04-21.45L151.04-21.45Q151.09-21.4 151.24-21.4L151.24-21.4Q151.49-21.4 151.74-21.55 151.99-21.7 152.09-21.85L152.09-21.85 152.84-21.2 148.34-16.1 147.64-16.7Q147.84-16.9 147.91-17.23 147.99-17.55 147.79-17.75L147.79-17.75Q146.89-18.45 146.06-18.8 145.24-19.15 144.24-19.15L144.24-19.15Q143.19-19.15 142.59-18.75 141.99-18.35 141.99-17.55L141.99-17.55Q141.99-16.9 142.34-16.5 142.69-16.1 143.61-15.7 144.54-15.3 146.44-14.7L146.44-14.7Q149.94-13.65 151.94-11.78 153.94-9.9 153.94-7.15L153.94-7.15Q153.94-3.1 151.39-1.18 148.84 0.75 144.64 0.75L144.64 0.75ZM169.94-24L170.89-24 170.89-16.4 169.94-16.4Q169.94-16.75 169.79-17.07 169.64-17.4 169.39-17.4L169.39-17.4 166.14-17.4 166.14-1.5Q166.14-1.25 166.49-1.1 166.84-0.95 167.19-0.95L167.19-0.95 167.19 0 159.04 0 159.04-0.95Q159.39-0.95 159.74-1.1 160.09-1.25 160.09-1.5L160.09-1.5 160.09-17.4 157.69-17.4Q157.44-17.4 157.29-17.07 157.14-16.75 157.14-16.4L157.14-16.4 156.19-16.4 156.19-24 157.14-24Q157.14-23.65 157.29-23.33 157.44-23 157.69-23L157.69-23 160.09-23 160.09-28.85Q160.09-29.1 159.74-29.25 159.39-29.4 159.04-29.4L159.04-29.4 159.04-30.35 167.19-30.35 167.19-29.4Q166.84-29.4 166.49-29.25 166.14-29.1 166.14-28.85L166.14-28.85 166.14-23 169.39-23Q169.64-23 169.79-23.33 169.94-23.65 169.94-24L169.94-24ZM195.88-20.05Q198.08-18.6 199.43-16.05 200.78-13.5 200.78-10.8L200.78-10.8Q200.78-7.2 199.26-4.48 197.73-1.75 194.88-0.28 192.03 1.2 188.13 1.2L188.13 1.2Q184.48 1.2 181.63-0.23 178.78-1.65 177.16-4.33 175.53-7 175.53-10.55L175.53-10.55Q175.53-13.65 176.88-16.15 178.23-18.65 180.58-20.2L180.58-20.2Q178.73-21.5 177.66-23.55 176.58-25.6 176.58-27.8L176.58-27.8Q176.58-30.9 178.06-33.38 179.53-35.85 182.18-37.23 184.83-38.6 188.13-38.6L188.13-38.6Q191.78-38.6 194.38-37.18 196.98-35.75 198.33-33.25 199.68-30.75 199.68-27.55L199.68-27.55Q199.68-25.3 198.68-23.33 197.68-21.35 195.88-20.05L195.88-20.05ZM188.13-33Q185.63-33 184.21-31.53 182.78-30.05 182.78-28.05L182.78-28.05Q182.78-25.7 184.21-24.18 185.63-22.65 188.13-22.65L188.13-22.65Q190.73-22.65 192.06-24.1 193.38-25.55 193.38-27.95L193.38-27.95Q193.38-30.05 192.01-31.53 190.63-33 188.13-33L188.13-33ZM188.23-4.55Q191.18-4.55 192.83-6.35 194.48-8.15 194.48-10.85L194.48-10.85Q194.48-13.45 192.76-15.18 191.03-16.9 188.18-16.9L188.18-16.9Q186.28-16.9 184.86-16.05 183.43-15.2 182.66-13.83 181.88-12.45 181.88-10.9L181.88-10.9Q181.88-8.3 183.58-6.43 185.28-4.55 188.23-4.55L188.23-4.55ZM216.38 0.75Q213.83 0.75 211.46-0.3 209.08-1.35 206.68-3.3L206.68-3.3Q206.58-3.4 206.43-3.4L206.43-3.4Q206.03-3.4 205.58-2.95L205.58-2.95 204.88-3.55 209.88-9.25 210.58-8.6Q210.38-8.35 210.26-8 210.13-7.65 210.33-7.45L210.33-7.45Q211.98-5.95 213.41-5.23 214.83-4.5 216.38-4.5L216.38-4.5Q220.23-4.5 220.23-7.05L220.23-7.05Q220.23-8.2 219.06-8.83 217.88-9.45 215.13-10.2L215.13-10.2Q211.58-11.15 209.98-12.68 208.38-14.2 208.38-16.85L208.38-16.85Q208.38-20 210.43-21.98 212.48-23.95 216.03-23.95L216.03-23.95Q217.83-23.95 219.28-23.4 220.73-22.85 222.78-21.45L222.78-21.45Q222.83-21.4 222.98-21.4L222.98-21.4Q223.23-21.4 223.48-21.55 223.73-21.7 223.83-21.85L223.83-21.85 224.58-21.2 220.08-16.1 219.38-16.7Q219.58-16.9 219.66-17.23 219.73-17.55 219.53-17.75L219.53-17.75Q218.63-18.45 217.81-18.8 216.98-19.15 215.98-19.15L215.98-19.15Q214.93-19.15 214.33-18.75 213.73-18.35 213.73-17.55L213.73-17.55Q213.73-16.9 214.08-16.5 214.43-16.1 215.36-15.7 216.28-15.3 218.18-14.7L218.18-14.7Q221.68-13.65 223.68-11.78 225.68-9.9 225.68-7.15L225.68-7.15Q225.68-3.1 223.13-1.18 220.58 0.75 216.38 0.75L216.38 0.75Z" opacity="1" transform="matrix(1,0,0,1,0,0)" fill="black" class="wordmark-text-0" id="SvgjsPath1049"></path></svg></g></svg></g><g transform="matrix(1,0,0,1,0,122.68884615935312)"><svg viewBox="0 0 191.62944000000002 15.112098434624148" height="15.112098434624148" width="191.62944000000002"><g transform="matrix(1,0,0,1,0,0)"><svg width="191.62944000000002" viewBox="2.1 -37.75 548.68 43.28" height="15.112098434624148" data-palette-color="url(#7c3f2f77-16f9-45dd-97d8-ace493914d2e)"><path d="M2.1-33.75L2.1 0 16.28 0Q22.65 0 25.41-3.65 28.18-7.3 28.18-16.88L28.18-16.88Q28.18-26.48 25.43-30.11 22.68-33.75 16.28-33.75L16.28-33.75 2.1-33.75ZM14.93-3.55L7.18-3.55 7.18-30.2 14.93-30.2Q19.03-30.2 21.05-27.76 23.08-25.33 23.08-16.88L23.08-16.88Q23.08-8.45 21.05-6 19.03-3.55 14.93-3.55L14.93-3.55ZM50.55-15.83L50.55-15.83 55.6-15.83Q55.6-23.15 53.64-26.51 51.67-29.88 46.62-29.88L46.62-29.88Q41.72-29.88 38.82-27.2 35.92-24.53 35.92-20.73L35.92-20.73 37.87-19.3Q37.87-22.03 39.72-24.19 41.57-26.35 44.8-26.35L44.8-26.35Q47.62-26.35 49.09-24.14 50.55-21.93 50.55-15.83ZM32.85-29.63L32.85 0 37.9 0 37.9-23.9 36.82-29.63 32.85-29.63ZM72.42 0.25L72.42 0.25 72.42-3.1Q68.62-3.1 66.5-5.88L66.5-5.88Q64.34-8.6 64.34-14.88L64.34-14.88Q64.34-21.5 66.57-24.05L66.57-24.05Q68.77-26.58 72.34-26.58L72.34-26.58Q76.02-26.58 78.07-24.18L78.07-24.18Q79.84-21.93 80.05-16.48L80.05-16.48 63.8-16.48 63.8-13.33 85.05-13.33Q85.15-14.08 85.15-14.95L85.15-14.95Q85.15-22.38 82.2-26.15L82.2-26.15Q79.22-29.93 72.34-29.93L72.34-29.93Q65.67-29.93 62.57-26.15L62.57-26.15Q59.45-22.4 59.45-14.88L59.45-14.88Q59.45-7.78 62.5-3.75L62.5-3.75Q65.52 0.25 72.42 0.25ZM72.42-3.1L72.42-3.1 72.42 0.25Q76.17 0.25 78.62-0.73L78.62-0.73Q81.07-1.7 82.62-3.85L82.62-3.85Q84.15-5.98 84.57-9.03L84.57-9.03 80.02-10.25Q79.59-8.05 78.75-6.3L78.75-6.3Q77.84-4.55 76.22-3.83L76.22-3.83Q74.59-3.1 72.42-3.1ZM99.69 0.28L99.69 0.28Q101.87 0.28 103.58-0.11 105.29-0.5 106.54-1.11 107.79-1.73 108.59-2.43 109.39-3.13 109.72-3.75L109.72-3.75 110.14 0 114.37 0 114.37-18.85Q114.37-22.85 112.93-25.28 111.49-27.7 108.74-28.8 105.99-29.9 102.04-29.9L102.04-29.9Q99.69-29.9 97.64-29.41 95.59-28.93 93.98-27.88 92.37-26.83 91.28-25.13 90.19-23.43 89.79-20.98L89.79-20.98 94.74-19.65Q95.12-22.13 96.11-23.61 97.09-25.1 98.62-25.78 100.14-26.45 102.07-26.45L102.07-26.45Q104.29-26.45 105.92-25.7 107.54-24.95 108.42-23.34 109.29-21.73 109.29-19.1L109.29-19.1 109.29-17.43 99.62-17.43Q97.29-17.43 95.42-17 93.54-16.57 92.23-15.59 90.92-14.6 90.22-12.91 89.52-11.23 89.52-8.68L89.52-8.68Q89.52-6.03 90.23-4.29 90.94-2.55 92.31-1.55 93.67-0.55 95.53-0.14 97.39 0.28 99.69 0.28ZM100.79-3.05L100.79-3.05Q99.52-3.05 98.39-3.31 97.27-3.58 96.42-4.2 95.57-4.83 95.11-5.95 94.64-7.08 94.64-8.88L94.64-8.88Q94.64-10.63 95.12-11.75 95.59-12.88 96.43-13.49 97.27-14.1 98.39-14.34 99.52-14.58 100.79-14.58L100.79-14.58 109.22-14.58 109.22-6.85Q108.79-5.93 107.67-5.05 106.54-4.17 104.81-3.61 103.07-3.05 100.79-3.05ZM119.79-29.63L119.79 0 124.87 0 124.87-24.7 123.77-29.63 119.79-29.63ZM136.37-17.78L136.37 0 141.42 0 141.42-18.13Q141.42-23.18 139.62-26.54 137.82-29.9 132.77-29.9L132.77-29.9Q128.32-29.9 125.23-26.61 122.14-23.33 122.14-19L122.14-19 124.82-17.65Q124.82-21.75 126.57-24.05 128.32-26.35 131.14-26.35L131.14-26.35Q133.94-26.35 135.15-24.24 136.37-22.13 136.37-17.78L136.37-17.78ZM152.87-17.78L152.87 0 157.92 0 157.92-18.13Q157.92-23.18 156.14-26.54 154.37-29.9 149.34-29.9L149.34-29.9Q144.87-29.9 141.78-26.59 138.69-23.28 138.69-19L138.69-19 141.39-17.65Q141.39-21.75 143.14-24.05 144.89-26.35 147.69-26.35L147.69-26.35Q150.52-26.35 151.69-24.24 152.87-22.13 152.87-17.78L152.87-17.78ZM176.86-33.75L176.86 0 181.96 0 181.96-33.75 176.86-33.75ZM201.73 0.33L201.73 0.33Q204.48 0.33 206.98-0.3L206.98-0.3 206.98-3.73Q205.26-3.15 203.43-3.15L203.43-3.15Q201.38-3.15 200.26-4.03 199.13-4.9 199.13-7.63L199.13-7.63 199.13-26.08 208.93-26.08 208.93-29.63 199.13-29.63 199.13-36.33 194.06-36.33 194.06-29.63 187.13-29.63 187.13-26.08 194.06-26.08 194.06-6.45Q194.06-2.55 196.26-1.11 198.46 0.33 201.73 0.33ZM214.68-2.83L211.96 5.53 215.01 5.53 219.63-2.83 214.68-2.83ZM237.83-33.75L237.83 0 257.73 0 257.73-3.53 242.93-3.53 242.93-33.75 237.83-33.75ZM263.17-29.65L263.17 0 268.25 0 268.25-29.65 263.17-29.65ZM268.25-37.75L263.17-37.75 263.17-33.27 268.25-33.27 268.25-37.75ZM286.85 0.2L286.85 0.2Q292.7 0.2 295.75-1.8 298.8-3.8 298.8-7.9L298.8-7.9Q298.8-12.35 295.73-14.04 292.67-15.73 288.15-16.65L288.15-16.65Q284.32-17.53 281.83-18.48 279.35-19.43 279.35-22.03L279.35-22.03Q279.35-24.1 280.98-25.33 282.62-26.55 286-26.55L286-26.55Q289.5-26.55 291.53-24.85 293.57-23.15 294-19.88L294-19.88 298.47-21.4Q297.75-25.95 294.61-27.91 291.47-29.88 286.05-29.88L286.05-29.88Q280.6-29.88 277.47-27.86 274.35-25.85 274.35-22L274.35-22Q274.35-17.78 277.18-15.96 280.02-14.15 284.55-13.18L284.55-13.18Q288.52-12.3 291.15-11.34 293.77-10.38 293.77-7.55L293.77-7.55Q293.77-5.58 292.06-4.36 290.35-3.15 286.92-3.15L286.92-3.15Q283.3-3.15 281.16-4.78 279.02-6.4 278.6-10.15L278.6-10.15 274.12-8.63Q274.9-3.65 278.2-1.73 281.5 0.2 286.85 0.2ZM315.87 0.33L315.87 0.33Q318.62 0.33 321.12-0.3L321.12-0.3 321.12-3.73Q319.39-3.15 317.57-3.15L317.57-3.15Q315.52-3.15 314.39-4.03 313.27-4.9 313.27-7.63L313.27-7.63 313.27-26.08 323.07-26.08 323.07-29.63 313.27-29.63 313.27-36.33 308.19-36.33 308.19-29.63 301.27-29.63 301.27-26.08 308.19-26.08 308.19-6.45Q308.19-2.55 310.39-1.11 312.59 0.33 315.87 0.33ZM340.99-33.75L340.99 0 346.09 0 346.09-33.75 340.99-33.75ZM365.86 0.33L365.86 0.33Q368.61 0.33 371.11-0.3L371.11-0.3 371.11-3.73Q369.39-3.15 367.56-3.15L367.56-3.15Q365.51-3.15 364.39-4.03 363.26-4.9 363.26-7.63L363.26-7.63 363.26-26.08 373.06-26.08 373.06-29.63 363.26-29.63 363.26-36.33 358.19-36.33 358.19-29.63 351.26-29.63 351.26-26.08 358.19-26.08 358.19-6.45Q358.19-2.55 360.39-1.11 362.59 0.33 365.86 0.33ZM378.81-2.83L376.08 5.53 379.13 5.53 383.76-2.83 378.81-2.83ZM401.95-33.75L401.95 0 421.85 0 421.85-3.53 407.05-3.53 407.05-33.75 401.95-33.75ZM427.3-29.65L427.3 0 432.38 0 432.38-29.65 427.3-29.65ZM432.38-37.75L427.3-37.75 427.3-33.27 432.38-33.27 432.38-37.75ZM437.4-29.65L446.75 0 453.7 0 463.1-29.65 457.8-29.65 450.27-3.53 450.22-3.53 442.72-29.65 437.4-29.65ZM478.69 0.25L478.69 0.25 478.69-3.1Q474.9-3.1 472.77-5.88L472.77-5.88Q470.62-8.6 470.62-14.88L470.62-14.88Q470.62-21.5 472.85-24.05L472.85-24.05Q475.05-26.58 478.62-26.58L478.62-26.58Q482.3-26.58 484.35-24.18L484.35-24.18Q486.12-21.93 486.32-16.48L486.32-16.48 470.07-16.48 470.07-13.33 491.32-13.33Q491.42-14.08 491.42-14.95L491.42-14.95Q491.42-22.38 488.47-26.15L488.47-26.15Q485.5-29.93 478.62-29.93L478.62-29.93Q471.94-29.93 468.85-26.15L468.85-26.15Q465.72-22.4 465.72-14.88L465.72-14.88Q465.72-7.78 468.77-3.75L468.77-3.75Q471.8 0.25 478.69 0.25ZM478.69-3.1L478.69-3.1 478.69 0.25Q482.44 0.25 484.9-0.73L484.9-0.73Q487.35-1.7 488.9-3.85L488.9-3.85Q490.42-5.98 490.85-9.03L490.85-9.03 486.3-10.25Q485.87-8.05 485.02-6.3L485.02-6.3Q484.12-4.55 482.5-3.83L482.5-3.83Q480.87-3.1 478.69-3.1ZM509.97-33.75L509.97 0 515.07 0 515.07-33.75 509.97-33.75ZM534.84 0.33L534.84 0.33Q537.59 0.33 540.09-0.3L540.09-0.3 540.09-3.73Q538.36-3.15 536.54-3.15L536.54-3.15Q534.49-3.15 533.36-4.03 532.24-4.9 532.24-7.63L532.24-7.63 532.24-26.08 542.04-26.08 542.04-29.63 532.24-29.63 532.24-36.33 527.16-36.33 527.16-29.63 520.24-29.63 520.24-26.08 527.16-26.08 527.16-6.45Q527.16-2.55 529.36-1.11 531.56 0.33 534.84 0.33ZM550.78-4.65L546.01-4.65 546.01 0 550.78 0 550.78-4.65Z" opacity="1" transform="matrix(1,0,0,1,0,0)" fill="black" class="slogan-text-1" id="SvgjsPath1048"></path></svg></g></svg></g></svg></g></svg></g><g transform="matrix(1,0,0,1,0,43.90821981493005)"><svg viewBox="0 0 122.82675839999999 49.98450496411714" height="49.98450496411714" width="122.82675839999999"><g><svg xmlns="http://www.w3.org/2000/svg" xmlns:xlink="http://www.w3.org/1999/xlink" version="1.1" x="0" y="0" viewBox="0.021999999999999797 27.720999999999997 99.95299999999999 40.67600000000001" style="enable-background:new 0 0 100 100;" xml:space="preserve" height="49.98450496411714" width="122.82675839999999" class="icon-icon-0" data-fill-palette-color="accent" id="SvgjsSvg1047"><path d="M99.975 59.486c0 1.768-1.429 3.198-3.196 3.198H58.779c-0.901 0-1.714-0.371-2.296-0.975l-25.08-25.901L5.478 61.748c-0.58 0.58-1.378 0.937-2.261 0.937-1.766 0-3.195-1.431-3.195-3.198 0-0.883 0.358-1.682 0.935-2.259L29.18 28.989c0.579-0.577 1.379-0.937 2.261-0.937 0.901 0 1.715 0.373 2.295 0.973l7.348 7.592h19.7v-8.896h8.479v8.896H79.55c0.957 0 1.818 0.423 2.405 1.089l17.229 19.673C99.677 57.943 99.975 58.683 99.975 59.486zM22.589 58.375h6.974v-6.978h-6.974V58.375zM33.104 58.375h6.973v-6.978h-6.973V58.375zM22.589 68.361h6.974v-6.978h-6.974V68.361zM33.104 68.397h6.973v-6.979h-6.973V68.397z" fill="black"></path></svg></g></svg></g></svg></g><defs><mask></mask></defs></svg><rect width="395.52" height="100.45549618484519" fill="black" stroke="none" visibility="hidden"></rect></g></mask></svg><rect width="395.52" height="100.45549618484519" fill="black" stroke="none" visibility="hidden"></rect></g></mask><linearGradient x1="0" x2="1" y1="0.578" y2="0.595" id="7c3f2f77-16f9-45dd-97d8-ace493914d2e"><stop stop-color="#6ee2f5" offset="0"></stop><stop stop-color="#6454f0" offset="1"></stop></linearGradient><rect width="395.52" height="100.45549618484519" fill="url(#7c3f2f77-16f9-45dd-97d8-ace493914d2e)" mask="url(#1c1c9292-40c3-4968-8311-448e70d47d92)" data-fill-palette-color="secondary"></rect><mask id="dfeee0fe-46ba-483a-b74f-67f4fb853ef6"><g id="SvgjsG1081"><svg viewBox="0 0 395.52 100.45549618484519" height="100.45549618484519" width="395.52"><g><svg viewBox="0 0 542.5589606916128 137.80094459397725" height="100.45549618484519" width="395.52"><g transform="matrix(1,0,0,1,145.0613606916129,0)"><svg viewBox="0 0 397.4975999999999 137.80094459397725" height="137.80094459397725" width="397.4975999999999"><g id="SvgjsG1080"><svg viewBox="0 0 397.4975999999999 137.80094459397725" height="137.80094459397725" width="397.4975999999999" id="SvgjsSvg1079"><g></g><g transform="matrix(1,0,0,1,0.9887999999999693,0)"><svg viewBox="0 0 395.52 94.18408602150537" height="94.18408602150537" width="395.52"><g transform="matrix(1,0,0,1,0,0)"><svg width="395.52" viewBox="2.5 -38.6 223.18 53.150000000000006" height="94.18408602150537" data-palette-color="url(#5d07723e-b05f-4185-bd11-714cc622aedc)"></svg></g></svg></g><g transform="matrix(1,0,0,1,0,122.68884615935312)"><svg viewBox="0 0 191.62944000000002 15.112098434624148" height="15.112098434624148" width="191.62944000000002"><g transform="matrix(1,0,0,1,0,0)"><svg width="191.62944000000002" viewBox="2.1 -37.75 548.68 43.28" height="15.112098434624148" data-palette-color="url(#7c3f2f77-16f9-45dd-97d8-ace493914d2e)"></svg></g></svg></g></svg></g></svg></g><g transform="matrix(1,0,0,1,0,43.90821981493005)"><svg viewBox="0 0 122.82675839999999 49.98450496411714" height="49.98450496411714" width="122.82675839999999"><g><svg xmlns="http://www.w3.org/2000/svg" xmlns:xlink="http://www.w3.org/1999/xlink" version="1.1" x="0" y="0" viewBox="0.021999999999999797 27.720999999999997 99.95299999999999 40.67600000000001" style="enable-background:new 0 0 100 100;" xml:space="preserve" height="49.98450496411714" width="122.82675839999999" class="icon-icon-0" data-fill-palette-color="accent" id="SvgjsSvg1078"><path d="M99.975 59.486c0 1.768-1.429 3.198-3.196 3.198H58.779c-0.901 0-1.714-0.371-2.296-0.975l-25.08-25.901L5.478 61.748c-0.58 0.58-1.378 0.937-2.261 0.937-1.766 0-3.195-1.431-3.195-3.198 0-0.883 0.358-1.682 0.935-2.259L29.18 28.989c0.579-0.577 1.379-0.937 2.261-0.937 0.901 0 1.715 0.373 2.295 0.973l7.348 7.592h19.7v-8.896h8.479v8.896H79.55c0.957 0 1.818 0.423 2.405 1.089l17.229 19.673C99.677 57.943 99.975 58.683 99.975 59.486zM22.589 58.375h6.974v-6.978h-6.974V58.375zM33.104 58.375h6.973v-6.978h-6.973V58.375zM22.589 68.361h6.974v-6.978h-6.974V68.361zM33.104 68.397h6.973v-6.979h-6.973V68.397z" fill="white"></path></svg></g></svg></g></svg></g><defs><mask></mask></defs><mask><g id="SvgjsG1077"><svg viewBox="0 0 395.52 100.45549618484519" height="100.45549618484519" width="395.52"><g><svg viewBox="0 0 542.5589606916128 137.80094459397725" height="100.45549618484519" width="395.52"><g transform="matrix(1,0,0,1,145.0613606916129,0)"><svg viewBox="0 0 397.4975999999999 137.80094459397725" height="137.80094459397725" width="397.4975999999999"><g id="SvgjsG1076"><svg viewBox="0 0 397.4975999999999 137.80094459397725" height="137.80094459397725" width="397.4975999999999" id="SvgjsSvg1075"><g><rect width="397.4975999999999" height="8.493618075396128" x="0" y="104.18965705273118" fill="black" opacity="1" stroke-width="0" stroke="transparent" fill-opacity="1" class="rect-qz-0" rx="1%" id="SvgjsRect1074" data-palette-color="url(#5d07723e-b05f-4185-bd11-714cc622aedc)"></rect></g><g transform="matrix(1,0,0,1,0.9887999999999693,0)"><svg viewBox="0 0 395.52 94.18408602150537" height="94.18408602150537" width="395.52"><g transform="matrix(1,0,0,1,0,0)"><svg width="395.52" viewBox="2.5 -38.6 223.18 53.150000000000006" height="94.18408602150537" data-palette-color="url(#5d07723e-b05f-4185-bd11-714cc622aedc)"><path d="M28.5-7L29.45-7 29.45 1 28.5 1Q28.5 0.65 28.35 0.3 28.2-0.05 27.95-0.05L27.95-0.05 2.5-0.05 2.5-1Q2.85-1 3.23-1.15 3.6-1.3 3.6-1.55L3.6-1.55 3.6-36.05Q3.6-36.3 3.23-36.45 2.85-36.6 2.5-36.6L2.5-36.6 2.5-37.55 26.65-37.55Q26.9-37.55 27.05-37.9 27.2-38.25 27.2-38.6L27.2-38.6 28.15-38.6 28.15-30.6 27.2-30.6Q27.2-30.95 27.05-31.3 26.9-31.65 26.65-31.65L26.65-31.65 10.05-31.65 10.05-22.85 24.2-22.85Q24.45-22.85 24.6-23.2 24.75-23.55 24.75-23.9L24.75-23.9 25.7-23.9 25.7-15.9 24.75-15.9Q24.75-16.25 24.6-16.6 24.45-16.95 24.2-16.95L24.2-16.95 10.05-16.95 10.05-5.95 27.95-5.95Q28.2-5.95 28.35-6.3 28.5-6.65 28.5-7L28.5-7ZM47.9-23.6Q51.45-23.6 54.25-22.08 57.05-20.55 58.62-17.78 60.2-15 60.2-11.4L60.2-11.4Q60.2-7.75 58.62-5 57.05-2.25 54.22-0.75 51.4 0.75 47.75 0.75L47.75 0.75Q43.6 0.75 40.3-2.05L40.3-2.05 40.3 13.05Q40.3 13.3 40.67 13.45 41.05 13.6 41.4 13.6L41.4 13.6 41.4 14.55 32.95 14.55 32.95 13.6Q33.3 13.6 33.67 13.45 34.05 13.3 34.05 13.05L34.05 13.05 34.05-21.5Q34.05-21.75 33.67-21.9 33.3-22.05 32.95-22.05L32.95-22.05 32.95-23 40.3-23 40.3-20.9Q43.7-23.6 47.9-23.6L47.9-23.6ZM47.25-4.6Q50.2-4.6 52.2-6.4 54.2-8.2 54.2-11.3L54.2-11.3Q54.2-14.3 52.25-16.23 50.3-18.15 47.25-18.15L47.25-18.15Q44.1-18.15 42.12-16.23 40.15-14.3 40.15-11.25L40.15-11.25Q40.15-9.55 41.07-8 42-6.45 43.62-5.53 45.25-4.6 47.25-4.6L47.25-4.6ZM69.3-27.2Q67.7-27.2 66.57-28.3 65.45-29.4 65.45-31.05L65.45-31.05Q65.45-32.6 66.57-33.73 67.7-34.85 69.3-34.85L69.3-34.85Q70.9-34.85 72-33.73 73.1-32.6 73.1-31.05L73.1-31.05Q73.1-29.4 72-28.3 70.9-27.2 69.3-27.2L69.3-27.2ZM66.05-21.5Q66.05-21.75 65.67-21.9 65.3-22.05 64.95-22.05L64.95-22.05 64.95-23 73.55-23 73.55-22.05Q73.2-22.05 72.82-21.9 72.45-21.75 72.45-21.5L72.45-21.5 72.45-1.5Q72.45-1.25 72.82-1.1 73.2-0.95 73.55-0.95L73.55-0.95 73.55 0 64.95 0 64.95-0.95Q65.3-0.95 65.67-1.1 66.05-1.25 66.05-1.5L66.05-1.5 66.05-21.5ZM90.24 1.05Q87.04 1.05 84.29-0.55 81.54-2.15 79.92-4.9 78.29-7.65 78.29-10.9L78.29-10.9Q78.29-14.75 79.92-17.68 81.54-20.6 84.29-22.18 87.04-23.75 90.34-23.75L90.34-23.75Q92.69-23.75 94.37-23.2 96.04-22.65 97.07-21.88 98.09-21.1 99.64-19.7L99.64-19.7Q99.74-19.6 99.89-19.6L99.89-19.6Q100.09-19.6 100.37-19.75 100.64-19.9 100.79-20.05L100.79-20.05 101.44-19.35 96.04-14.35 95.39-15.05Q95.64-15.25 95.82-15.63 95.99-16 95.84-16.2L95.84-16.2Q94.04-18.4 90.89-18.4L90.89-18.4Q88.04-18.4 86.12-16.5 84.19-14.6 84.19-11.55L84.19-11.55Q84.19-8.4 86.04-6.5 87.89-4.6 90.89-4.6L90.89-4.6Q92.39-4.6 93.34-4.98 94.29-5.35 95.49-6.4L95.49-6.4Q95.59-6.5 95.59-6.65L95.59-6.65Q95.59-6.95 95.24-7.3L95.24-7.3 95.84-8.05 101.24-3.55 100.64-2.85Q99.84-3.3 99.54-3L99.54-3Q97.69-0.95 95.67 0.05 93.64 1.05 90.24 1.05L90.24 1.05ZM130.69-7L131.64-7 131.64 1 130.69 1Q130.69 0.65 130.54 0.3 130.39-0.05 130.14-0.05L130.14-0.05 104.69-0.05 104.69-1Q105.04-1 105.42-1.15 105.79-1.3 105.79-1.55L105.79-1.55 105.79-36.05Q105.79-36.3 105.42-36.45 105.04-36.6 104.69-36.6L104.69-36.6 104.69-37.55 128.84-37.55Q129.09-37.55 129.24-37.9 129.39-38.25 129.39-38.6L129.39-38.6 130.34-38.6 130.34-30.6 129.39-30.6Q129.39-30.95 129.24-31.3 129.09-31.65 128.84-31.65L128.84-31.65 112.24-31.65 112.24-22.85 126.39-22.85Q126.64-22.85 126.79-23.2 126.94-23.55 126.94-23.9L126.94-23.9 127.89-23.9 127.89-15.9 126.94-15.9Q126.94-16.25 126.79-16.6 126.64-16.95 126.39-16.95L126.39-16.95 112.24-16.95 112.24-5.95 130.14-5.95Q130.39-5.95 130.54-6.3 130.69-6.65 130.69-7L130.69-7ZM144.64 0.75Q142.09 0.75 139.71-0.3 137.34-1.35 134.94-3.3L134.94-3.3Q134.84-3.4 134.69-3.4L134.69-3.4Q134.29-3.4 133.84-2.95L133.84-2.95 133.14-3.55 138.14-9.25 138.84-8.6Q138.64-8.35 138.51-8 138.39-7.65 138.59-7.45L138.59-7.45Q140.24-5.95 141.66-5.23 143.09-4.5 144.64-4.5L144.64-4.5Q148.49-4.5 148.49-7.05L148.49-7.05Q148.49-8.2 147.31-8.83 146.14-9.45 143.39-10.2L143.39-10.2Q139.84-11.15 138.24-12.68 136.64-14.2 136.64-16.85L136.64-16.85Q136.64-20 138.69-21.98 140.74-23.95 144.29-23.95L144.29-23.95Q146.09-23.95 147.54-23.4 148.99-22.85 151.04-21.45L151.04-21.45Q151.09-21.4 151.24-21.4L151.24-21.4Q151.49-21.4 151.74-21.55 151.99-21.7 152.09-21.85L152.09-21.85 152.84-21.2 148.34-16.1 147.64-16.7Q147.84-16.9 147.91-17.23 147.99-17.55 147.79-17.75L147.79-17.75Q146.89-18.45 146.06-18.8 145.24-19.15 144.24-19.15L144.24-19.15Q143.19-19.15 142.59-18.75 141.99-18.35 141.99-17.55L141.99-17.55Q141.99-16.9 142.34-16.5 142.69-16.1 143.61-15.7 144.54-15.3 146.44-14.7L146.44-14.7Q149.94-13.65 151.94-11.78 153.94-9.9 153.94-7.15L153.94-7.15Q153.94-3.1 151.39-1.18 148.84 0.75 144.64 0.75L144.64 0.75ZM169.94-24L170.89-24 170.89-16.4 169.94-16.4Q169.94-16.75 169.79-17.07 169.64-17.4 169.39-17.4L169.39-17.4 166.14-17.4 166.14-1.5Q166.14-1.25 166.49-1.1 166.84-0.95 167.19-0.95L167.19-0.95 167.19 0 159.04 0 159.04-0.95Q159.39-0.95 159.74-1.1 160.09-1.25 160.09-1.5L160.09-1.5 160.09-17.4 157.69-17.4Q157.44-17.4 157.29-17.07 157.14-16.75 157.14-16.4L157.14-16.4 156.19-16.4 156.19-24 157.14-24Q157.14-23.65 157.29-23.33 157.44-23 157.69-23L157.69-23 160.09-23 160.09-28.85Q160.09-29.1 159.74-29.25 159.39-29.4 159.04-29.4L159.04-29.4 159.04-30.35 167.19-30.35 167.19-29.4Q166.84-29.4 166.49-29.25 166.14-29.1 166.14-28.85L166.14-28.85 166.14-23 169.39-23Q169.64-23 169.79-23.33 169.94-23.65 169.94-24L169.94-24ZM195.88-20.05Q198.08-18.6 199.43-16.05 200.78-13.5 200.78-10.8L200.78-10.8Q200.78-7.2 199.26-4.48 197.73-1.75 194.88-0.28 192.03 1.2 188.13 1.2L188.13 1.2Q184.48 1.2 181.63-0.23 178.78-1.65 177.16-4.33 175.53-7 175.53-10.55L175.53-10.55Q175.53-13.65 176.88-16.15 178.23-18.65 180.58-20.2L180.58-20.2Q178.73-21.5 177.66-23.55 176.58-25.6 176.58-27.8L176.58-27.8Q176.58-30.9 178.06-33.38 179.53-35.85 182.18-37.23 184.83-38.6 188.13-38.6L188.13-38.6Q191.78-38.6 194.38-37.18 196.98-35.75 198.33-33.25 199.68-30.75 199.68-27.55L199.68-27.55Q199.68-25.3 198.68-23.33 197.68-21.35 195.88-20.05L195.88-20.05ZM188.13-33Q185.63-33 184.21-31.53 182.78-30.05 182.78-28.05L182.78-28.05Q182.78-25.7 184.21-24.18 185.63-22.65 188.13-22.65L188.13-22.65Q190.73-22.65 192.06-24.1 193.38-25.55 193.38-27.95L193.38-27.95Q193.38-30.05 192.01-31.53 190.63-33 188.13-33L188.13-33ZM188.23-4.55Q191.18-4.55 192.83-6.35 194.48-8.15 194.48-10.85L194.48-10.85Q194.48-13.45 192.76-15.18 191.03-16.9 188.18-16.9L188.18-16.9Q186.28-16.9 184.86-16.05 183.43-15.2 182.66-13.83 181.88-12.45 181.88-10.9L181.88-10.9Q181.88-8.3 183.58-6.43 185.28-4.55 188.23-4.55L188.23-4.55ZM216.38 0.75Q213.83 0.75 211.46-0.3 209.08-1.35 206.68-3.3L206.68-3.3Q206.58-3.4 206.43-3.4L206.43-3.4Q206.03-3.4 205.58-2.95L205.58-2.95 204.88-3.55 209.88-9.25 210.58-8.6Q210.38-8.35 210.26-8 210.13-7.65 210.33-7.45L210.33-7.45Q211.98-5.95 213.41-5.23 214.83-4.5 216.38-4.5L216.38-4.5Q220.23-4.5 220.23-7.05L220.23-7.05Q220.23-8.2 219.06-8.83 217.88-9.45 215.13-10.2L215.13-10.2Q211.58-11.15 209.98-12.68 208.38-14.2 208.38-16.85L208.38-16.85Q208.38-20 210.43-21.98 212.48-23.95 216.03-23.95L216.03-23.95Q217.83-23.95 219.28-23.4 220.73-22.85 222.78-21.45L222.78-21.45Q222.83-21.4 222.98-21.4L222.98-21.4Q223.23-21.4 223.48-21.55 223.73-21.7 223.83-21.85L223.83-21.85 224.58-21.2 220.08-16.1 219.38-16.7Q219.58-16.9 219.66-17.23 219.73-17.55 219.53-17.75L219.53-17.75Q218.63-18.45 217.81-18.8 216.98-19.15 215.98-19.15L215.98-19.15Q214.93-19.15 214.33-18.75 213.73-18.35 213.73-17.55L213.73-17.55Q213.73-16.9 214.08-16.5 214.43-16.1 215.36-15.7 216.28-15.3 218.18-14.7L218.18-14.7Q221.68-13.65 223.68-11.78 225.68-9.9 225.68-7.15L225.68-7.15Q225.68-3.1 223.13-1.18 220.58 0.75 216.38 0.75L216.38 0.75Z" opacity="1" transform="matrix(1,0,0,1,0,0)" fill="black" class="wordmark-text-0" id="SvgjsPath1073"></path></svg></g></svg></g><g transform="matrix(1,0,0,1,0,122.68884615935312)"><svg viewBox="0 0 191.62944000000002 15.112098434624148" height="15.112098434624148" width="191.62944000000002"><g transform="matrix(1,0,0,1,0,0)"><svg width="191.62944000000002" viewBox="2.1 -37.75 548.68 43.28" height="15.112098434624148" data-palette-color="url(#7c3f2f77-16f9-45dd-97d8-ace493914d2e)"><path d="M2.1-33.75L2.1 0 16.28 0Q22.65 0 25.41-3.65 28.18-7.3 28.18-16.88L28.18-16.88Q28.18-26.48 25.43-30.11 22.68-33.75 16.28-33.75L16.28-33.75 2.1-33.75ZM14.93-3.55L7.18-3.55 7.18-30.2 14.93-30.2Q19.03-30.2 21.05-27.76 23.08-25.33 23.08-16.88L23.08-16.88Q23.08-8.45 21.05-6 19.03-3.55 14.93-3.55L14.93-3.55ZM50.55-15.83L50.55-15.83 55.6-15.83Q55.6-23.15 53.64-26.51 51.67-29.88 46.62-29.88L46.62-29.88Q41.72-29.88 38.82-27.2 35.92-24.53 35.92-20.73L35.92-20.73 37.87-19.3Q37.87-22.03 39.72-24.19 41.57-26.35 44.8-26.35L44.8-26.35Q47.62-26.35 49.09-24.14 50.55-21.93 50.55-15.83ZM32.85-29.63L32.85 0 37.9 0 37.9-23.9 36.82-29.63 32.85-29.63ZM72.42 0.25L72.42 0.25 72.42-3.1Q68.62-3.1 66.5-5.88L66.5-5.88Q64.34-8.6 64.34-14.88L64.34-14.88Q64.34-21.5 66.57-24.05L66.57-24.05Q68.77-26.58 72.34-26.58L72.34-26.58Q76.02-26.58 78.07-24.18L78.07-24.18Q79.84-21.93 80.05-16.48L80.05-16.48 63.8-16.48 63.8-13.33 85.05-13.33Q85.15-14.08 85.15-14.95L85.15-14.95Q85.15-22.38 82.2-26.15L82.2-26.15Q79.22-29.93 72.34-29.93L72.34-29.93Q65.67-29.93 62.57-26.15L62.57-26.15Q59.45-22.4 59.45-14.88L59.45-14.88Q59.45-7.78 62.5-3.75L62.5-3.75Q65.52 0.25 72.42 0.25ZM72.42-3.1L72.42-3.1 72.42 0.25Q76.17 0.25 78.62-0.73L78.62-0.73Q81.07-1.7 82.62-3.85L82.62-3.85Q84.15-5.98 84.57-9.03L84.57-9.03 80.02-10.25Q79.59-8.05 78.75-6.3L78.75-6.3Q77.84-4.55 76.22-3.83L76.22-3.83Q74.59-3.1 72.42-3.1ZM99.69 0.28L99.69 0.28Q101.87 0.28 103.58-0.11 105.29-0.5 106.54-1.11 107.79-1.73 108.59-2.43 109.39-3.13 109.72-3.75L109.72-3.75 110.14 0 114.37 0 114.37-18.85Q114.37-22.85 112.93-25.28 111.49-27.7 108.74-28.8 105.99-29.9 102.04-29.9L102.04-29.9Q99.69-29.9 97.64-29.41 95.59-28.93 93.98-27.88 92.37-26.83 91.28-25.13 90.19-23.43 89.79-20.98L89.79-20.98 94.74-19.65Q95.12-22.13 96.11-23.61 97.09-25.1 98.62-25.78 100.14-26.45 102.07-26.45L102.07-26.45Q104.29-26.45 105.92-25.7 107.54-24.95 108.42-23.34 109.29-21.73 109.29-19.1L109.29-19.1 109.29-17.43 99.62-17.43Q97.29-17.43 95.42-17 93.54-16.57 92.23-15.59 90.92-14.6 90.22-12.91 89.52-11.23 89.52-8.68L89.52-8.68Q89.52-6.03 90.23-4.29 90.94-2.55 92.31-1.55 93.67-0.55 95.53-0.14 97.39 0.28 99.69 0.28ZM100.79-3.05L100.79-3.05Q99.52-3.05 98.39-3.31 97.27-3.58 96.42-4.2 95.57-4.83 95.11-5.95 94.64-7.08 94.64-8.88L94.64-8.88Q94.64-10.63 95.12-11.75 95.59-12.88 96.43-13.49 97.27-14.1 98.39-14.34 99.52-14.58 100.79-14.58L100.79-14.58 109.22-14.58 109.22-6.85Q108.79-5.93 107.67-5.05 106.54-4.17 104.81-3.61 103.07-3.05 100.79-3.05ZM119.79-29.63L119.79 0 124.87 0 124.87-24.7 123.77-29.63 119.79-29.63ZM136.37-17.78L136.37 0 141.42 0 141.42-18.13Q141.42-23.18 139.62-26.54 137.82-29.9 132.77-29.9L132.77-29.9Q128.32-29.9 125.23-26.61 122.14-23.33 122.14-19L122.14-19 124.82-17.65Q124.82-21.75 126.57-24.05 128.32-26.35 131.14-26.35L131.14-26.35Q133.94-26.35 135.15-24.24 136.37-22.13 136.37-17.78L136.37-17.78ZM152.87-17.78L152.87 0 157.92 0 157.92-18.13Q157.92-23.18 156.14-26.54 154.37-29.9 149.34-29.9L149.34-29.9Q144.87-29.9 141.78-26.59 138.69-23.28 138.69-19L138.69-19 141.39-17.65Q141.39-21.75 143.14-24.05 144.89-26.35 147.69-26.35L147.69-26.35Q150.52-26.35 151.69-24.24 152.87-22.13 152.87-17.78L152.87-17.78ZM176.86-33.75L176.86 0 181.96 0 181.96-33.75 176.86-33.75ZM201.73 0.33L201.73 0.33Q204.48 0.33 206.98-0.3L206.98-0.3 206.98-3.73Q205.26-3.15 203.43-3.15L203.43-3.15Q201.38-3.15 200.26-4.03 199.13-4.9 199.13-7.63L199.13-7.63 199.13-26.08 208.93-26.08 208.93-29.63 199.13-29.63 199.13-36.33 194.06-36.33 194.06-29.63 187.13-29.63 187.13-26.08 194.06-26.08 194.06-6.45Q194.06-2.55 196.26-1.11 198.46 0.33 201.73 0.33ZM214.68-2.83L211.96 5.53 215.01 5.53 219.63-2.83 214.68-2.83ZM237.83-33.75L237.83 0 257.73 0 257.73-3.53 242.93-3.53 242.93-33.75 237.83-33.75ZM263.17-29.65L263.17 0 268.25 0 268.25-29.65 263.17-29.65ZM268.25-37.75L263.17-37.75 263.17-33.27 268.25-33.27 268.25-37.75ZM286.85 0.2L286.85 0.2Q292.7 0.2 295.75-1.8 298.8-3.8 298.8-7.9L298.8-7.9Q298.8-12.35 295.73-14.04 292.67-15.73 288.15-16.65L288.15-16.65Q284.32-17.53 281.83-18.48 279.35-19.43 279.35-22.03L279.35-22.03Q279.35-24.1 280.98-25.33 282.62-26.55 286-26.55L286-26.55Q289.5-26.55 291.53-24.85 293.57-23.15 294-19.88L294-19.88 298.47-21.4Q297.75-25.95 294.61-27.91 291.47-29.88 286.05-29.88L286.05-29.88Q280.6-29.88 277.47-27.86 274.35-25.85 274.35-22L274.35-22Q274.35-17.78 277.18-15.96 280.02-14.15 284.55-13.18L284.55-13.18Q288.52-12.3 291.15-11.34 293.77-10.38 293.77-7.55L293.77-7.55Q293.77-5.58 292.06-4.36 290.35-3.15 286.92-3.15L286.92-3.15Q283.3-3.15 281.16-4.78 279.02-6.4 278.6-10.15L278.6-10.15 274.12-8.63Q274.9-3.65 278.2-1.73 281.5 0.2 286.85 0.2ZM315.87 0.33L315.87 0.33Q318.62 0.33 321.12-0.3L321.12-0.3 321.12-3.73Q319.39-3.15 317.57-3.15L317.57-3.15Q315.52-3.15 314.39-4.03 313.27-4.9 313.27-7.63L313.27-7.63 313.27-26.08 323.07-26.08 323.07-29.63 313.27-29.63 313.27-36.33 308.19-36.33 308.19-29.63 301.27-29.63 301.27-26.08 308.19-26.08 308.19-6.45Q308.19-2.55 310.39-1.11 312.59 0.33 315.87 0.33ZM340.99-33.75L340.99 0 346.09 0 346.09-33.75 340.99-33.75ZM365.86 0.33L365.86 0.33Q368.61 0.33 371.11-0.3L371.11-0.3 371.11-3.73Q369.39-3.15 367.56-3.15L367.56-3.15Q365.51-3.15 364.39-4.03 363.26-4.9 363.26-7.63L363.26-7.63 363.26-26.08 373.06-26.08 373.06-29.63 363.26-29.63 363.26-36.33 358.19-36.33 358.19-29.63 351.26-29.63 351.26-26.08 358.19-26.08 358.19-6.45Q358.19-2.55 360.39-1.11 362.59 0.33 365.86 0.33ZM378.81-2.83L376.08 5.53 379.13 5.53 383.76-2.83 378.81-2.83ZM401.95-33.75L401.95 0 421.85 0 421.85-3.53 407.05-3.53 407.05-33.75 401.95-33.75ZM427.3-29.65L427.3 0 432.38 0 432.38-29.65 427.3-29.65ZM432.38-37.75L427.3-37.75 427.3-33.27 432.38-33.27 432.38-37.75ZM437.4-29.65L446.75 0 453.7 0 463.1-29.65 457.8-29.65 450.27-3.53 450.22-3.53 442.72-29.65 437.4-29.65ZM478.69 0.25L478.69 0.25 478.69-3.1Q474.9-3.1 472.77-5.88L472.77-5.88Q470.62-8.6 470.62-14.88L470.62-14.88Q470.62-21.5 472.85-24.05L472.85-24.05Q475.05-26.58 478.62-26.58L478.62-26.58Q482.3-26.58 484.35-24.18L484.35-24.18Q486.12-21.93 486.32-16.48L486.32-16.48 470.07-16.48 470.07-13.33 491.32-13.33Q491.42-14.08 491.42-14.95L491.42-14.95Q491.42-22.38 488.47-26.15L488.47-26.15Q485.5-29.93 478.62-29.93L478.62-29.93Q471.94-29.93 468.85-26.15L468.85-26.15Q465.72-22.4 465.72-14.88L465.72-14.88Q465.72-7.78 468.77-3.75L468.77-3.75Q471.8 0.25 478.69 0.25ZM478.69-3.1L478.69-3.1 478.69 0.25Q482.44 0.25 484.9-0.73L484.9-0.73Q487.35-1.7 488.9-3.85L488.9-3.85Q490.42-5.98 490.85-9.03L490.85-9.03 486.3-10.25Q485.87-8.05 485.02-6.3L485.02-6.3Q484.12-4.55 482.5-3.83L482.5-3.83Q480.87-3.1 478.69-3.1ZM509.97-33.75L509.97 0 515.07 0 515.07-33.75 509.97-33.75ZM534.84 0.33L534.84 0.33Q537.59 0.33 540.09-0.3L540.09-0.3 540.09-3.73Q538.36-3.15 536.54-3.15L536.54-3.15Q534.49-3.15 533.36-4.03 532.24-4.9 532.24-7.63L532.24-7.63 532.24-26.08 542.04-26.08 542.04-29.63 532.24-29.63 532.24-36.33 527.16-36.33 527.16-29.63 520.24-29.63 520.24-26.08 527.16-26.08 527.16-6.45Q527.16-2.55 529.36-1.11 531.56 0.33 534.84 0.33ZM550.78-4.65L546.01-4.65 546.01 0 550.78 0 550.78-4.65Z" opacity="1" transform="matrix(1,0,0,1,0,0)" fill="black" class="slogan-text-1" id="SvgjsPath1072"></path></svg></g></svg></g></svg></g></svg></g><g transform="matrix(1,0,0,1,0,43.90821981493005)"><svg viewBox="0 0 122.82675839999999 49.98450496411714" height="49.98450496411714" width="122.82675839999999"><g><svg xmlns="http://www.w3.org/2000/svg" xmlns:xlink="http://www.w3.org/1999/xlink" version="1.1" x="0" y="0" viewBox="0.021999999999999797 27.720999999999997 99.95299999999999 40.67600000000001" style="enable-background:new 0 0 100 100;" xml:space="preserve" height="49.98450496411714" width="122.82675839999999" class="icon-icon-0" data-fill-palette-color="accent" id="SvgjsSvg1071"><path d="M99.975 59.486c0 1.768-1.429 3.198-3.196 3.198H58.779c-0.901 0-1.714-0.371-2.296-0.975l-25.08-25.901L5.478 61.748c-0.58 0.58-1.378 0.937-2.261 0.937-1.766 0-3.195-1.431-3.195-3.198 0-0.883 0.358-1.682 0.935-2.259L29.18 28.989c0.579-0.577 1.379-0.937 2.261-0.937 0.901 0 1.715 0.373 2.295 0.973l7.348 7.592h19.7v-8.896h8.479v8.896H79.55c0.957 0 1.818 0.423 2.405 1.089l17.229 19.673C99.677 57.943 99.975 58.683 99.975 59.486zM22.589 58.375h6.974v-6.978h-6.974V58.375zM33.104 58.375h6.973v-6.978h-6.973V58.375zM22.589 68.361h6.974v-6.978h-6.974V68.361zM33.104 68.397h6.973v-6.979h-6.973V68.397z" fill="black"></path></svg></g></svg></g></svg></g><defs><mask></mask></defs></svg><rect width="395.52" height="100.45549618484519" fill="black" stroke="none" visibility="hidden"></rect></g></mask><mask><g id="SvgjsG1070"><svg viewBox="0 0 395.52 100.45549618484519" height="100.45549618484519" width="395.52"><g><svg viewBox="0 0 542.5589606916128 137.80094459397725" height="100.45549618484519" width="395.52"><g transform="matrix(1,0,0,1,145.0613606916129,0)"><svg viewBox="0 0 397.4975999999999 137.80094459397725" height="137.80094459397725" width="397.4975999999999"><g id="SvgjsG1069"><svg viewBox="0 0 397.4975999999999 137.80094459397725" height="137.80094459397725" width="397.4975999999999" id="SvgjsSvg1068"><g></g><g transform="matrix(1,0,0,1,0.9887999999999693,0)"><svg viewBox="0 0 395.52 94.18408602150537" height="94.18408602150537" width="395.52"><g transform="matrix(1,0,0,1,0,0)"><svg width="395.52" viewBox="2.5 -38.6 223.18 53.150000000000006" height="94.18408602150537" data-palette-color="url(#5d07723e-b05f-4185-bd11-714cc622aedc)"></svg></g></svg></g><g transform="matrix(1,0,0,1,0,122.68884615935312)"><svg viewBox="0 0 191.62944000000002 15.112098434624148" height="15.112098434624148" width="191.62944000000002"><g transform="matrix(1,0,0,1,0,0)"><svg width="191.62944000000002" viewBox="2.1 -37.75 548.68 43.28" height="15.112098434624148" data-palette-color="url(#7c3f2f77-16f9-45dd-97d8-ace493914d2e)"><path d="M2.1-33.75L2.1 0 16.28 0Q22.65 0 25.41-3.65 28.18-7.3 28.18-16.88L28.18-16.88Q28.18-26.48 25.43-30.11 22.68-33.75 16.28-33.75L16.28-33.75 2.1-33.75ZM14.93-3.55L7.18-3.55 7.18-30.2 14.93-30.2Q19.03-30.2 21.05-27.76 23.08-25.33 23.08-16.88L23.08-16.88Q23.08-8.45 21.05-6 19.03-3.55 14.93-3.55L14.93-3.55ZM50.55-15.83L50.55-15.83 55.6-15.83Q55.6-23.15 53.64-26.51 51.67-29.88 46.62-29.88L46.62-29.88Q41.72-29.88 38.82-27.2 35.92-24.53 35.92-20.73L35.92-20.73 37.87-19.3Q37.87-22.03 39.72-24.19 41.57-26.35 44.8-26.35L44.8-26.35Q47.62-26.35 49.09-24.14 50.55-21.93 50.55-15.83ZM32.85-29.63L32.85 0 37.9 0 37.9-23.9 36.82-29.63 32.85-29.63ZM72.42 0.25L72.42 0.25 72.42-3.1Q68.62-3.1 66.5-5.88L66.5-5.88Q64.34-8.6 64.34-14.88L64.34-14.88Q64.34-21.5 66.57-24.05L66.57-24.05Q68.77-26.58 72.34-26.58L72.34-26.58Q76.02-26.58 78.07-24.18L78.07-24.18Q79.84-21.93 80.05-16.48L80.05-16.48 63.8-16.48 63.8-13.33 85.05-13.33Q85.15-14.08 85.15-14.95L85.15-14.95Q85.15-22.38 82.2-26.15L82.2-26.15Q79.22-29.93 72.34-29.93L72.34-29.93Q65.67-29.93 62.57-26.15L62.57-26.15Q59.45-22.4 59.45-14.88L59.45-14.88Q59.45-7.78 62.5-3.75L62.5-3.75Q65.52 0.25 72.42 0.25ZM72.42-3.1L72.42-3.1 72.42 0.25Q76.17 0.25 78.62-0.73L78.62-0.73Q81.07-1.7 82.62-3.85L82.62-3.85Q84.15-5.98 84.57-9.03L84.57-9.03 80.02-10.25Q79.59-8.05 78.75-6.3L78.75-6.3Q77.84-4.55 76.22-3.83L76.22-3.83Q74.59-3.1 72.42-3.1ZM99.69 0.28L99.69 0.28Q101.87 0.28 103.58-0.11 105.29-0.5 106.54-1.11 107.79-1.73 108.59-2.43 109.39-3.13 109.72-3.75L109.72-3.75 110.14 0 114.37 0 114.37-18.85Q114.37-22.85 112.93-25.28 111.49-27.7 108.74-28.8 105.99-29.9 102.04-29.9L102.04-29.9Q99.69-29.9 97.64-29.41 95.59-28.93 93.98-27.88 92.37-26.83 91.28-25.13 90.19-23.43 89.79-20.98L89.79-20.98 94.74-19.65Q95.12-22.13 96.11-23.61 97.09-25.1 98.62-25.78 100.14-26.45 102.07-26.45L102.07-26.45Q104.29-26.45 105.92-25.7 107.54-24.95 108.42-23.34 109.29-21.73 109.29-19.1L109.29-19.1 109.29-17.43 99.62-17.43Q97.29-17.43 95.42-17 93.54-16.57 92.23-15.59 90.92-14.6 90.22-12.91 89.52-11.23 89.52-8.68L89.52-8.68Q89.52-6.03 90.23-4.29 90.94-2.55 92.31-1.55 93.67-0.55 95.53-0.14 97.39 0.28 99.69 0.28ZM100.79-3.05L100.79-3.05Q99.52-3.05 98.39-3.31 97.27-3.58 96.42-4.2 95.57-4.83 95.11-5.95 94.64-7.08 94.64-8.88L94.64-8.88Q94.64-10.63 95.12-11.75 95.59-12.88 96.43-13.49 97.27-14.1 98.39-14.34 99.52-14.58 100.79-14.58L100.79-14.58 109.22-14.58 109.22-6.85Q108.79-5.93 107.67-5.05 106.54-4.17 104.81-3.61 103.07-3.05 100.79-3.05ZM119.79-29.63L119.79 0 124.87 0 124.87-24.7 123.77-29.63 119.79-29.63ZM136.37-17.78L136.37 0 141.42 0 141.42-18.13Q141.42-23.18 139.62-26.54 137.82-29.9 132.77-29.9L132.77-29.9Q128.32-29.9 125.23-26.61 122.14-23.33 122.14-19L122.14-19 124.82-17.65Q124.82-21.75 126.57-24.05 128.32-26.35 131.14-26.35L131.14-26.35Q133.94-26.35 135.15-24.24 136.37-22.13 136.37-17.78L136.37-17.78ZM152.87-17.78L152.87 0 157.92 0 157.92-18.13Q157.92-23.18 156.14-26.54 154.37-29.9 149.34-29.9L149.34-29.9Q144.87-29.9 141.78-26.59 138.69-23.28 138.69-19L138.69-19 141.39-17.65Q141.39-21.75 143.14-24.05 144.89-26.35 147.69-26.35L147.69-26.35Q150.52-26.35 151.69-24.24 152.87-22.13 152.87-17.78L152.87-17.78ZM176.86-33.75L176.86 0 181.96 0 181.96-33.75 176.86-33.75ZM201.73 0.33L201.73 0.33Q204.48 0.33 206.98-0.3L206.98-0.3 206.98-3.73Q205.26-3.15 203.43-3.15L203.43-3.15Q201.38-3.15 200.26-4.03 199.13-4.9 199.13-7.63L199.13-7.63 199.13-26.08 208.93-26.08 208.93-29.63 199.13-29.63 199.13-36.33 194.06-36.33 194.06-29.63 187.13-29.63 187.13-26.08 194.06-26.08 194.06-6.45Q194.06-2.55 196.26-1.11 198.46 0.33 201.73 0.33ZM214.68-2.83L211.96 5.53 215.01 5.53 219.63-2.83 214.68-2.83ZM237.83-33.75L237.83 0 257.73 0 257.73-3.53 242.93-3.53 242.93-33.75 237.83-33.75ZM263.17-29.65L263.17 0 268.25 0 268.25-29.65 263.17-29.65ZM268.25-37.75L263.17-37.75 263.17-33.27 268.25-33.27 268.25-37.75ZM286.85 0.2L286.85 0.2Q292.7 0.2 295.75-1.8 298.8-3.8 298.8-7.9L298.8-7.9Q298.8-12.35 295.73-14.04 292.67-15.73 288.15-16.65L288.15-16.65Q284.32-17.53 281.83-18.48 279.35-19.43 279.35-22.03L279.35-22.03Q279.35-24.1 280.98-25.33 282.62-26.55 286-26.55L286-26.55Q289.5-26.55 291.53-24.85 293.57-23.15 294-19.88L294-19.88 298.47-21.4Q297.75-25.95 294.61-27.91 291.47-29.88 286.05-29.88L286.05-29.88Q280.6-29.88 277.47-27.86 274.35-25.85 274.35-22L274.35-22Q274.35-17.78 277.18-15.96 280.02-14.15 284.55-13.18L284.55-13.18Q288.52-12.3 291.15-11.34 293.77-10.38 293.77-7.55L293.77-7.55Q293.77-5.58 292.06-4.36 290.35-3.15 286.92-3.15L286.92-3.15Q283.3-3.15 281.16-4.78 279.02-6.4 278.6-10.15L278.6-10.15 274.12-8.63Q274.9-3.65 278.2-1.73 281.5 0.2 286.85 0.2ZM315.87 0.33L315.87 0.33Q318.62 0.33 321.12-0.3L321.12-0.3 321.12-3.73Q319.39-3.15 317.57-3.15L317.57-3.15Q315.52-3.15 314.39-4.03 313.27-4.9 313.27-7.63L313.27-7.63 313.27-26.08 323.07-26.08 323.07-29.63 313.27-29.63 313.27-36.33 308.19-36.33 308.19-29.63 301.27-29.63 301.27-26.08 308.19-26.08 308.19-6.45Q308.19-2.55 310.39-1.11 312.59 0.33 315.87 0.33ZM340.99-33.75L340.99 0 346.09 0 346.09-33.75 340.99-33.75ZM365.86 0.33L365.86 0.33Q368.61 0.33 371.11-0.3L371.11-0.3 371.11-3.73Q369.39-3.15 367.56-3.15L367.56-3.15Q365.51-3.15 364.39-4.03 363.26-4.9 363.26-7.63L363.26-7.63 363.26-26.08 373.06-26.08 373.06-29.63 363.26-29.63 363.26-36.33 358.19-36.33 358.19-29.63 351.26-29.63 351.26-26.08 358.19-26.08 358.19-6.45Q358.19-2.55 360.39-1.11 362.59 0.33 365.86 0.33ZM378.81-2.83L376.08 5.53 379.13 5.53 383.76-2.83 378.81-2.83ZM401.95-33.75L401.95 0 421.85 0 421.85-3.53 407.05-3.53 407.05-33.75 401.95-33.75ZM427.3-29.65L427.3 0 432.38 0 432.38-29.65 427.3-29.65ZM432.38-37.75L427.3-37.75 427.3-33.27 432.38-33.27 432.38-37.75ZM437.4-29.65L446.75 0 453.7 0 463.1-29.65 457.8-29.65 450.27-3.53 450.22-3.53 442.72-29.65 437.4-29.65ZM478.69 0.25L478.69 0.25 478.69-3.1Q474.9-3.1 472.77-5.88L472.77-5.88Q470.62-8.6 470.62-14.88L470.62-14.88Q470.62-21.5 472.85-24.05L472.85-24.05Q475.05-26.58 478.62-26.58L478.62-26.58Q482.3-26.58 484.35-24.18L484.35-24.18Q486.12-21.93 486.32-16.48L486.32-16.48 470.07-16.48 470.07-13.33 491.32-13.33Q491.42-14.08 491.42-14.95L491.42-14.95Q491.42-22.38 488.47-26.15L488.47-26.15Q485.5-29.93 478.62-29.93L478.62-29.93Q471.94-29.93 468.85-26.15L468.85-26.15Q465.72-22.4 465.72-14.88L465.72-14.88Q465.72-7.78 468.77-3.75L468.77-3.75Q471.8 0.25 478.69 0.25ZM478.69-3.1L478.69-3.1 478.69 0.25Q482.44 0.25 484.9-0.73L484.9-0.73Q487.35-1.7 488.9-3.85L488.9-3.85Q490.42-5.98 490.85-9.03L490.85-9.03 486.3-10.25Q485.87-8.05 485.02-6.3L485.02-6.3Q484.12-4.55 482.5-3.83L482.5-3.83Q480.87-3.1 478.69-3.1ZM509.97-33.75L509.97 0 515.07 0 515.07-33.75 509.97-33.75ZM534.84 0.33L534.84 0.33Q537.59 0.33 540.09-0.3L540.09-0.3 540.09-3.73Q538.36-3.15 536.54-3.15L536.54-3.15Q534.49-3.15 533.36-4.03 532.24-4.9 532.24-7.63L532.24-7.63 532.24-26.08 542.04-26.08 542.04-29.63 532.24-29.63 532.24-36.33 527.16-36.33 527.16-29.63 520.24-29.63 520.24-26.08 527.16-26.08 527.16-6.45Q527.16-2.55 529.36-1.11 531.56 0.33 534.84 0.33ZM550.78-4.65L546.01-4.65 546.01 0 550.78 0 550.78-4.65Z" opacity="1" transform="matrix(1,0,0,1,0,0)" fill="black" class="slogan-text-1" id="SvgjsPath1067"></path></svg></g></svg></g></svg></g></svg></g><g transform="matrix(1,0,0,1,0,43.90821981493005)"><svg viewBox="0 0 122.82675839999999 49.98450496411714" height="49.98450496411714" width="122.82675839999999"><g><svg xmlns="http://www.w3.org/2000/svg" xmlns:xlink="http://www.w3.org/1999/xlink" version="1.1" x="0" y="0" viewBox="0.021999999999999797 27.720999999999997 99.95299999999999 40.67600000000001" style="enable-background:new 0 0 100 100;" xml:space="preserve" height="49.98450496411714" width="122.82675839999999" class="icon-icon-0" data-fill-palette-color="accent" id="SvgjsSvg1066"><path d="M99.975 59.486c0 1.768-1.429 3.198-3.196 3.198H58.779c-0.901 0-1.714-0.371-2.296-0.975l-25.08-25.901L5.478 61.748c-0.58 0.58-1.378 0.937-2.261 0.937-1.766 0-3.195-1.431-3.195-3.198 0-0.883 0.358-1.682 0.935-2.259L29.18 28.989c0.579-0.577 1.379-0.937 2.261-0.937 0.901 0 1.715 0.373 2.295 0.973l7.348 7.592h19.7v-8.896h8.479v8.896H79.55c0.957 0 1.818 0.423 2.405 1.089l17.229 19.673C99.677 57.943 99.975 58.683 99.975 59.486zM22.589 58.375h6.974v-6.978h-6.974V58.375zM33.104 58.375h6.973v-6.978h-6.973V58.375zM22.589 68.361h6.974v-6.978h-6.974V68.361zM33.104 68.397h6.973v-6.979h-6.973V68.397z" fill="black"></path></svg></g></svg></g></svg></g><defs><mask></mask></defs><mask><g id="SvgjsG1065"><svg viewBox="0 0 395.52 100.45549618484519" height="100.45549618484519" width="395.52"><g><svg viewBox="0 0 542.5589606916128 137.80094459397725" height="100.45549618484519" width="395.52"><g transform="matrix(1,0,0,1,145.0613606916129,0)"><svg viewBox="0 0 397.4975999999999 137.80094459397725" height="137.80094459397725" width="397.4975999999999"><g id="SvgjsG1064"><svg viewBox="0 0 397.4975999999999 137.80094459397725" height="137.80094459397725" width="397.4975999999999" id="SvgjsSvg1063"><g><rect width="397.4975999999999" height="8.493618075396128" x="0" y="104.18965705273118" fill="black" opacity="1" stroke-width="0" stroke="transparent" fill-opacity="1" class="rect-qz-0" rx="1%" id="SvgjsRect1062" data-palette-color="url(#5d07723e-b05f-4185-bd11-714cc622aedc)"></rect></g><g transform="matrix(1,0,0,1,0.9887999999999693,0)"><svg viewBox="0 0 395.52 94.18408602150537" height="94.18408602150537" width="395.52"><g transform="matrix(1,0,0,1,0,0)"><svg width="395.52" viewBox="2.5 -38.6 223.18 53.150000000000006" height="94.18408602150537" data-palette-color="url(#5d07723e-b05f-4185-bd11-714cc622aedc)"><path d="M28.5-7L29.45-7 29.45 1 28.5 1Q28.5 0.65 28.35 0.3 28.2-0.05 27.95-0.05L27.95-0.05 2.5-0.05 2.5-1Q2.85-1 3.23-1.15 3.6-1.3 3.6-1.55L3.6-1.55 3.6-36.05Q3.6-36.3 3.23-36.45 2.85-36.6 2.5-36.6L2.5-36.6 2.5-37.55 26.65-37.55Q26.9-37.55 27.05-37.9 27.2-38.25 27.2-38.6L27.2-38.6 28.15-38.6 28.15-30.6 27.2-30.6Q27.2-30.95 27.05-31.3 26.9-31.65 26.65-31.65L26.65-31.65 10.05-31.65 10.05-22.85 24.2-22.85Q24.45-22.85 24.6-23.2 24.75-23.55 24.75-23.9L24.75-23.9 25.7-23.9 25.7-15.9 24.75-15.9Q24.75-16.25 24.6-16.6 24.45-16.95 24.2-16.95L24.2-16.95 10.05-16.95 10.05-5.95 27.95-5.95Q28.2-5.95 28.35-6.3 28.5-6.65 28.5-7L28.5-7ZM47.9-23.6Q51.45-23.6 54.25-22.08 57.05-20.55 58.62-17.78 60.2-15 60.2-11.4L60.2-11.4Q60.2-7.75 58.62-5 57.05-2.25 54.22-0.75 51.4 0.75 47.75 0.75L47.75 0.75Q43.6 0.75 40.3-2.05L40.3-2.05 40.3 13.05Q40.3 13.3 40.67 13.45 41.05 13.6 41.4 13.6L41.4 13.6 41.4 14.55 32.95 14.55 32.95 13.6Q33.3 13.6 33.67 13.45 34.05 13.3 34.05 13.05L34.05 13.05 34.05-21.5Q34.05-21.75 33.67-21.9 33.3-22.05 32.95-22.05L32.95-22.05 32.95-23 40.3-23 40.3-20.9Q43.7-23.6 47.9-23.6L47.9-23.6ZM47.25-4.6Q50.2-4.6 52.2-6.4 54.2-8.2 54.2-11.3L54.2-11.3Q54.2-14.3 52.25-16.23 50.3-18.15 47.25-18.15L47.25-18.15Q44.1-18.15 42.12-16.23 40.15-14.3 40.15-11.25L40.15-11.25Q40.15-9.55 41.07-8 42-6.45 43.62-5.53 45.25-4.6 47.25-4.6L47.25-4.6ZM69.3-27.2Q67.7-27.2 66.57-28.3 65.45-29.4 65.45-31.05L65.45-31.05Q65.45-32.6 66.57-33.73 67.7-34.85 69.3-34.85L69.3-34.85Q70.9-34.85 72-33.73 73.1-32.6 73.1-31.05L73.1-31.05Q73.1-29.4 72-28.3 70.9-27.2 69.3-27.2L69.3-27.2ZM66.05-21.5Q66.05-21.75 65.67-21.9 65.3-22.05 64.95-22.05L64.95-22.05 64.95-23 73.55-23 73.55-22.05Q73.2-22.05 72.82-21.9 72.45-21.75 72.45-21.5L72.45-21.5 72.45-1.5Q72.45-1.25 72.82-1.1 73.2-0.95 73.55-0.95L73.55-0.95 73.55 0 64.95 0 64.95-0.95Q65.3-0.95 65.67-1.1 66.05-1.25 66.05-1.5L66.05-1.5 66.05-21.5ZM90.24 1.05Q87.04 1.05 84.29-0.55 81.54-2.15 79.92-4.9 78.29-7.65 78.29-10.9L78.29-10.9Q78.29-14.75 79.92-17.68 81.54-20.6 84.29-22.18 87.04-23.75 90.34-23.75L90.34-23.75Q92.69-23.75 94.37-23.2 96.04-22.65 97.07-21.88 98.09-21.1 99.64-19.7L99.64-19.7Q99.74-19.6 99.89-19.6L99.89-19.6Q100.09-19.6 100.37-19.75 100.64-19.9 100.79-20.05L100.79-20.05 101.44-19.35 96.04-14.35 95.39-15.05Q95.64-15.25 95.82-15.63 95.99-16 95.84-16.2L95.84-16.2Q94.04-18.4 90.89-18.4L90.89-18.4Q88.04-18.4 86.12-16.5 84.19-14.6 84.19-11.55L84.19-11.55Q84.19-8.4 86.04-6.5 87.89-4.6 90.89-4.6L90.89-4.6Q92.39-4.6 93.34-4.98 94.29-5.35 95.49-6.4L95.49-6.4Q95.59-6.5 95.59-6.65L95.59-6.65Q95.59-6.95 95.24-7.3L95.24-7.3 95.84-8.05 101.24-3.55 100.64-2.85Q99.84-3.3 99.54-3L99.54-3Q97.69-0.95 95.67 0.05 93.64 1.05 90.24 1.05L90.24 1.05ZM130.69-7L131.64-7 131.64 1 130.69 1Q130.69 0.65 130.54 0.3 130.39-0.05 130.14-0.05L130.14-0.05 104.69-0.05 104.69-1Q105.04-1 105.42-1.15 105.79-1.3 105.79-1.55L105.79-1.55 105.79-36.05Q105.79-36.3 105.42-36.45 105.04-36.6 104.69-36.6L104.69-36.6 104.69-37.55 128.84-37.55Q129.09-37.55 129.24-37.9 129.39-38.25 129.39-38.6L129.39-38.6 130.34-38.6 130.34-30.6 129.39-30.6Q129.39-30.95 129.24-31.3 129.09-31.65 128.84-31.65L128.84-31.65 112.24-31.65 112.24-22.85 126.39-22.85Q126.64-22.85 126.79-23.2 126.94-23.55 126.94-23.9L126.94-23.9 127.89-23.9 127.89-15.9 126.94-15.9Q126.94-16.25 126.79-16.6 126.64-16.95 126.39-16.95L126.39-16.95 112.24-16.95 112.24-5.95 130.14-5.95Q130.39-5.95 130.54-6.3 130.69-6.65 130.69-7L130.69-7ZM144.64 0.75Q142.09 0.75 139.71-0.3 137.34-1.35 134.94-3.3L134.94-3.3Q134.84-3.4 134.69-3.4L134.69-3.4Q134.29-3.4 133.84-2.95L133.84-2.95 133.14-3.55 138.14-9.25 138.84-8.6Q138.64-8.35 138.51-8 138.39-7.65 138.59-7.45L138.59-7.45Q140.24-5.95 141.66-5.23 143.09-4.5 144.64-4.5L144.64-4.5Q148.49-4.5 148.49-7.05L148.49-7.05Q148.49-8.2 147.31-8.83 146.14-9.45 143.39-10.2L143.39-10.2Q139.84-11.15 138.24-12.68 136.64-14.2 136.64-16.85L136.64-16.85Q136.64-20 138.69-21.98 140.74-23.95 144.29-23.95L144.29-23.95Q146.09-23.95 147.54-23.4 148.99-22.85 151.04-21.45L151.04-21.45Q151.09-21.4 151.24-21.4L151.24-21.4Q151.49-21.4 151.74-21.55 151.99-21.7 152.09-21.85L152.09-21.85 152.84-21.2 148.34-16.1 147.64-16.7Q147.84-16.9 147.91-17.23 147.99-17.55 147.79-17.75L147.79-17.75Q146.89-18.45 146.06-18.8 145.24-19.15 144.24-19.15L144.24-19.15Q143.19-19.15 142.59-18.75 141.99-18.35 141.99-17.55L141.99-17.55Q141.99-16.9 142.34-16.5 142.69-16.1 143.61-15.7 144.54-15.3 146.44-14.7L146.44-14.7Q149.94-13.65 151.94-11.78 153.94-9.9 153.94-7.15L153.94-7.15Q153.94-3.1 151.39-1.18 148.84 0.75 144.64 0.75L144.64 0.75ZM169.94-24L170.89-24 170.89-16.4 169.94-16.4Q169.94-16.75 169.79-17.07 169.64-17.4 169.39-17.4L169.39-17.4 166.14-17.4 166.14-1.5Q166.14-1.25 166.49-1.1 166.84-0.95 167.19-0.95L167.19-0.95 167.19 0 159.04 0 159.04-0.95Q159.39-0.95 159.74-1.1 160.09-1.25 160.09-1.5L160.09-1.5 160.09-17.4 157.69-17.4Q157.44-17.4 157.29-17.07 157.14-16.75 157.14-16.4L157.14-16.4 156.19-16.4 156.19-24 157.14-24Q157.14-23.65 157.29-23.33 157.44-23 157.69-23L157.69-23 160.09-23 160.09-28.85Q160.09-29.1 159.74-29.25 159.39-29.4 159.04-29.4L159.04-29.4 159.04-30.35 167.19-30.35 167.19-29.4Q166.84-29.4 166.49-29.25 166.14-29.1 166.14-28.85L166.14-28.85 166.14-23 169.39-23Q169.64-23 169.79-23.33 169.94-23.65 169.94-24L169.94-24ZM195.88-20.05Q198.08-18.6 199.43-16.05 200.78-13.5 200.78-10.8L200.78-10.8Q200.78-7.2 199.26-4.48 197.73-1.75 194.88-0.28 192.03 1.2 188.13 1.2L188.13 1.2Q184.48 1.2 181.63-0.23 178.78-1.65 177.16-4.33 175.53-7 175.53-10.55L175.53-10.55Q175.53-13.65 176.88-16.15 178.23-18.65 180.58-20.2L180.58-20.2Q178.73-21.5 177.66-23.55 176.58-25.6 176.58-27.8L176.58-27.8Q176.58-30.9 178.06-33.38 179.53-35.85 182.18-37.23 184.83-38.6 188.13-38.6L188.13-38.6Q191.78-38.6 194.38-37.18 196.98-35.75 198.33-33.25 199.68-30.75 199.68-27.55L199.68-27.55Q199.68-25.3 198.68-23.33 197.68-21.35 195.88-20.05L195.88-20.05ZM188.13-33Q185.63-33 184.21-31.53 182.78-30.05 182.78-28.05L182.78-28.05Q182.78-25.7 184.21-24.18 185.63-22.65 188.13-22.65L188.13-22.65Q190.73-22.65 192.06-24.1 193.38-25.55 193.38-27.95L193.38-27.95Q193.38-30.05 192.01-31.53 190.63-33 188.13-33L188.13-33ZM188.23-4.55Q191.18-4.55 192.83-6.35 194.48-8.15 194.48-10.85L194.48-10.85Q194.48-13.45 192.76-15.18 191.03-16.9 188.18-16.9L188.18-16.9Q186.28-16.9 184.86-16.05 183.43-15.2 182.66-13.83 181.88-12.45 181.88-10.9L181.88-10.9Q181.88-8.3 183.58-6.43 185.28-4.55 188.23-4.55L188.23-4.55ZM216.38 0.75Q213.83 0.75 211.46-0.3 209.08-1.35 206.68-3.3L206.68-3.3Q206.58-3.4 206.43-3.4L206.43-3.4Q206.03-3.4 205.58-2.95L205.58-2.95 204.88-3.55 209.88-9.25 210.58-8.6Q210.38-8.35 210.26-8 210.13-7.65 210.33-7.45L210.33-7.45Q211.98-5.95 213.41-5.23 214.83-4.5 216.38-4.5L216.38-4.5Q220.23-4.5 220.23-7.05L220.23-7.05Q220.23-8.2 219.06-8.83 217.88-9.45 215.13-10.2L215.13-10.2Q211.58-11.15 209.98-12.68 208.38-14.2 208.38-16.85L208.38-16.85Q208.38-20 210.43-21.98 212.48-23.95 216.03-23.95L216.03-23.95Q217.83-23.95 219.28-23.4 220.73-22.85 222.78-21.45L222.78-21.45Q222.83-21.4 222.98-21.4L222.98-21.4Q223.23-21.4 223.48-21.55 223.73-21.7 223.83-21.85L223.83-21.85 224.58-21.2 220.08-16.1 219.38-16.7Q219.58-16.9 219.66-17.23 219.73-17.55 219.53-17.75L219.53-17.75Q218.63-18.45 217.81-18.8 216.98-19.15 215.98-19.15L215.98-19.15Q214.93-19.15 214.33-18.75 213.73-18.35 213.73-17.55L213.73-17.55Q213.73-16.9 214.08-16.5 214.43-16.1 215.36-15.7 216.28-15.3 218.18-14.7L218.18-14.7Q221.68-13.65 223.68-11.78 225.68-9.9 225.68-7.15L225.68-7.15Q225.68-3.1 223.13-1.18 220.58 0.75 216.38 0.75L216.38 0.75Z" opacity="1" transform="matrix(1,0,0,1,0,0)" fill="black" class="wordmark-text-0" id="SvgjsPath1061"></path></svg></g></svg></g><g transform="matrix(1,0,0,1,0,122.68884615935312)"><svg viewBox="0 0 191.62944000000002 15.112098434624148" height="15.112098434624148" width="191.62944000000002"><g transform="matrix(1,0,0,1,0,0)"><svg width="191.62944000000002" viewBox="2.1 -37.75 548.68 43.28" height="15.112098434624148" data-palette-color="url(#7c3f2f77-16f9-45dd-97d8-ace493914d2e)"><path d="M2.1-33.75L2.1 0 16.28 0Q22.65 0 25.41-3.65 28.18-7.3 28.18-16.88L28.18-16.88Q28.18-26.48 25.43-30.11 22.68-33.75 16.28-33.75L16.28-33.75 2.1-33.75ZM14.93-3.55L7.18-3.55 7.18-30.2 14.93-30.2Q19.03-30.2 21.05-27.76 23.08-25.33 23.08-16.88L23.08-16.88Q23.08-8.45 21.05-6 19.03-3.55 14.93-3.55L14.93-3.55ZM50.55-15.83L50.55-15.83 55.6-15.83Q55.6-23.15 53.64-26.51 51.67-29.88 46.62-29.88L46.62-29.88Q41.72-29.88 38.82-27.2 35.92-24.53 35.92-20.73L35.92-20.73 37.87-19.3Q37.87-22.03 39.72-24.19 41.57-26.35 44.8-26.35L44.8-26.35Q47.62-26.35 49.09-24.14 50.55-21.93 50.55-15.83ZM32.85-29.63L32.85 0 37.9 0 37.9-23.9 36.82-29.63 32.85-29.63ZM72.42 0.25L72.42 0.25 72.42-3.1Q68.62-3.1 66.5-5.88L66.5-5.88Q64.34-8.6 64.34-14.88L64.34-14.88Q64.34-21.5 66.57-24.05L66.57-24.05Q68.77-26.58 72.34-26.58L72.34-26.58Q76.02-26.58 78.07-24.18L78.07-24.18Q79.84-21.93 80.05-16.48L80.05-16.48 63.8-16.48 63.8-13.33 85.05-13.33Q85.15-14.08 85.15-14.95L85.15-14.95Q85.15-22.38 82.2-26.15L82.2-26.15Q79.22-29.93 72.34-29.93L72.34-29.93Q65.67-29.93 62.57-26.15L62.57-26.15Q59.45-22.4 59.45-14.88L59.45-14.88Q59.45-7.78 62.5-3.75L62.5-3.75Q65.52 0.25 72.42 0.25ZM72.42-3.1L72.42-3.1 72.42 0.25Q76.17 0.25 78.62-0.73L78.62-0.73Q81.07-1.7 82.62-3.85L82.62-3.85Q84.15-5.98 84.57-9.03L84.57-9.03 80.02-10.25Q79.59-8.05 78.75-6.3L78.75-6.3Q77.84-4.55 76.22-3.83L76.22-3.83Q74.59-3.1 72.42-3.1ZM99.69 0.28L99.69 0.28Q101.87 0.28 103.58-0.11 105.29-0.5 106.54-1.11 107.79-1.73 108.59-2.43 109.39-3.13 109.72-3.75L109.72-3.75 110.14 0 114.37 0 114.37-18.85Q114.37-22.85 112.93-25.28 111.49-27.7 108.74-28.8 105.99-29.9 102.04-29.9L102.04-29.9Q99.69-29.9 97.64-29.41 95.59-28.93 93.98-27.88 92.37-26.83 91.28-25.13 90.19-23.43 89.79-20.98L89.79-20.98 94.74-19.65Q95.12-22.13 96.11-23.61 97.09-25.1 98.62-25.78 100.14-26.45 102.07-26.45L102.07-26.45Q104.29-26.45 105.92-25.7 107.54-24.95 108.42-23.34 109.29-21.73 109.29-19.1L109.29-19.1 109.29-17.43 99.62-17.43Q97.29-17.43 95.42-17 93.54-16.57 92.23-15.59 90.92-14.6 90.22-12.91 89.52-11.23 89.52-8.68L89.52-8.68Q89.52-6.03 90.23-4.29 90.94-2.55 92.31-1.55 93.67-0.55 95.53-0.14 97.39 0.28 99.69 0.28ZM100.79-3.05L100.79-3.05Q99.52-3.05 98.39-3.31 97.27-3.58 96.42-4.2 95.57-4.83 95.11-5.95 94.64-7.08 94.64-8.88L94.64-8.88Q94.64-10.63 95.12-11.75 95.59-12.88 96.43-13.49 97.27-14.1 98.39-14.34 99.52-14.58 100.79-14.58L100.79-14.58 109.22-14.58 109.22-6.85Q108.79-5.93 107.67-5.05 106.54-4.17 104.81-3.61 103.07-3.05 100.79-3.05ZM119.79-29.63L119.79 0 124.87 0 124.87-24.7 123.77-29.63 119.79-29.63ZM136.37-17.78L136.37 0 141.42 0 141.42-18.13Q141.42-23.18 139.62-26.54 137.82-29.9 132.77-29.9L132.77-29.9Q128.32-29.9 125.23-26.61 122.14-23.33 122.14-19L122.14-19 124.82-17.65Q124.82-21.75 126.57-24.05 128.32-26.35 131.14-26.35L131.14-26.35Q133.94-26.35 135.15-24.24 136.37-22.13 136.37-17.78L136.37-17.78ZM152.87-17.78L152.87 0 157.92 0 157.92-18.13Q157.92-23.18 156.14-26.54 154.37-29.9 149.34-29.9L149.34-29.9Q144.87-29.9 141.78-26.59 138.69-23.28 138.69-19L138.69-19 141.39-17.65Q141.39-21.75 143.14-24.05 144.89-26.35 147.69-26.35L147.69-26.35Q150.52-26.35 151.69-24.24 152.87-22.13 152.87-17.78L152.87-17.78ZM176.86-33.75L176.86 0 181.96 0 181.96-33.75 176.86-33.75ZM201.73 0.33L201.73 0.33Q204.48 0.33 206.98-0.3L206.98-0.3 206.98-3.73Q205.26-3.15 203.43-3.15L203.43-3.15Q201.38-3.15 200.26-4.03 199.13-4.9 199.13-7.63L199.13-7.63 199.13-26.08 208.93-26.08 208.93-29.63 199.13-29.63 199.13-36.33 194.06-36.33 194.06-29.63 187.13-29.63 187.13-26.08 194.06-26.08 194.06-6.45Q194.06-2.55 196.26-1.11 198.46 0.33 201.73 0.33ZM214.68-2.83L211.96 5.53 215.01 5.53 219.63-2.83 214.68-2.83ZM237.83-33.75L237.83 0 257.73 0 257.73-3.53 242.93-3.53 242.93-33.75 237.83-33.75ZM263.17-29.65L263.17 0 268.25 0 268.25-29.65 263.17-29.65ZM268.25-37.75L263.17-37.75 263.17-33.27 268.25-33.27 268.25-37.75ZM286.85 0.2L286.85 0.2Q292.7 0.2 295.75-1.8 298.8-3.8 298.8-7.9L298.8-7.9Q298.8-12.35 295.73-14.04 292.67-15.73 288.15-16.65L288.15-16.65Q284.32-17.53 281.83-18.48 279.35-19.43 279.35-22.03L279.35-22.03Q279.35-24.1 280.98-25.33 282.62-26.55 286-26.55L286-26.55Q289.5-26.55 291.53-24.85 293.57-23.15 294-19.88L294-19.88 298.47-21.4Q297.75-25.95 294.61-27.91 291.47-29.88 286.05-29.88L286.05-29.88Q280.6-29.88 277.47-27.86 274.35-25.85 274.35-22L274.35-22Q274.35-17.78 277.18-15.96 280.02-14.15 284.55-13.18L284.55-13.18Q288.52-12.3 291.15-11.34 293.77-10.38 293.77-7.55L293.77-7.55Q293.77-5.58 292.06-4.36 290.35-3.15 286.92-3.15L286.92-3.15Q283.3-3.15 281.16-4.78 279.02-6.4 278.6-10.15L278.6-10.15 274.12-8.63Q274.9-3.65 278.2-1.73 281.5 0.2 286.85 0.2ZM315.87 0.33L315.87 0.33Q318.62 0.33 321.12-0.3L321.12-0.3 321.12-3.73Q319.39-3.15 317.57-3.15L317.57-3.15Q315.52-3.15 314.39-4.03 313.27-4.9 313.27-7.63L313.27-7.63 313.27-26.08 323.07-26.08 323.07-29.63 313.27-29.63 313.27-36.33 308.19-36.33 308.19-29.63 301.27-29.63 301.27-26.08 308.19-26.08 308.19-6.45Q308.19-2.55 310.39-1.11 312.59 0.33 315.87 0.33ZM340.99-33.75L340.99 0 346.09 0 346.09-33.75 340.99-33.75ZM365.86 0.33L365.86 0.33Q368.61 0.33 371.11-0.3L371.11-0.3 371.11-3.73Q369.39-3.15 367.56-3.15L367.56-3.15Q365.51-3.15 364.39-4.03 363.26-4.9 363.26-7.63L363.26-7.63 363.26-26.08 373.06-26.08 373.06-29.63 363.26-29.63 363.26-36.33 358.19-36.33 358.19-29.63 351.26-29.63 351.26-26.08 358.19-26.08 358.19-6.45Q358.19-2.55 360.39-1.11 362.59 0.33 365.86 0.33ZM378.81-2.83L376.08 5.53 379.13 5.53 383.76-2.83 378.81-2.83ZM401.95-33.75L401.95 0 421.85 0 421.85-3.53 407.05-3.53 407.05-33.75 401.95-33.75ZM427.3-29.65L427.3 0 432.38 0 432.38-29.65 427.3-29.65ZM432.38-37.75L427.3-37.75 427.3-33.27 432.38-33.27 432.38-37.75ZM437.4-29.65L446.75 0 453.7 0 463.1-29.65 457.8-29.65 450.27-3.53 450.22-3.53 442.72-29.65 437.4-29.65ZM478.69 0.25L478.69 0.25 478.69-3.1Q474.9-3.1 472.77-5.88L472.77-5.88Q470.62-8.6 470.62-14.88L470.62-14.88Q470.62-21.5 472.85-24.05L472.85-24.05Q475.05-26.58 478.62-26.58L478.62-26.58Q482.3-26.58 484.35-24.18L484.35-24.18Q486.12-21.93 486.32-16.48L486.32-16.48 470.07-16.48 470.07-13.33 491.32-13.33Q491.42-14.08 491.42-14.95L491.42-14.95Q491.42-22.38 488.47-26.15L488.47-26.15Q485.5-29.93 478.62-29.93L478.62-29.93Q471.94-29.93 468.85-26.15L468.85-26.15Q465.72-22.4 465.72-14.88L465.72-14.88Q465.72-7.78 468.77-3.75L468.77-3.75Q471.8 0.25 478.69 0.25ZM478.69-3.1L478.69-3.1 478.69 0.25Q482.44 0.25 484.9-0.73L484.9-0.73Q487.35-1.7 488.9-3.85L488.9-3.85Q490.42-5.98 490.85-9.03L490.85-9.03 486.3-10.25Q485.87-8.05 485.02-6.3L485.02-6.3Q484.12-4.55 482.5-3.83L482.5-3.83Q480.87-3.1 478.69-3.1ZM509.97-33.75L509.97 0 515.07 0 515.07-33.75 509.97-33.75ZM534.84 0.33L534.84 0.33Q537.59 0.33 540.09-0.3L540.09-0.3 540.09-3.73Q538.36-3.15 536.54-3.15L536.54-3.15Q534.49-3.15 533.36-4.03 532.24-4.9 532.24-7.63L532.24-7.63 532.24-26.08 542.04-26.08 542.04-29.63 532.24-29.63 532.24-36.33 527.16-36.33 527.16-29.63 520.24-29.63 520.24-26.08 527.16-26.08 527.16-6.45Q527.16-2.55 529.36-1.11 531.56 0.33 534.84 0.33ZM550.78-4.65L546.01-4.65 546.01 0 550.78 0 550.78-4.65Z" opacity="1" transform="matrix(1,0,0,1,0,0)" fill="black" class="slogan-text-1" id="SvgjsPath1060"></path></svg></g></svg></g></svg></g></svg></g><g transform="matrix(1,0,0,1,0,43.90821981493005)"><svg viewBox="0 0 122.82675839999999 49.98450496411714" height="49.98450496411714" width="122.82675839999999"><g><svg xmlns="http://www.w3.org/2000/svg" xmlns:xlink="http://www.w3.org/1999/xlink" version="1.1" x="0" y="0" viewBox="0.021999999999999797 27.720999999999997 99.95299999999999 40.67600000000001" style="enable-background:new 0 0 100 100;" xml:space="preserve" height="49.98450496411714" width="122.82675839999999" class="icon-icon-0" data-fill-palette-color="accent" id="SvgjsSvg1059"><path d="M99.975 59.486c0 1.768-1.429 3.198-3.196 3.198H58.779c-0.901 0-1.714-0.371-2.296-0.975l-25.08-25.901L5.478 61.748c-0.58 0.58-1.378 0.937-2.261 0.937-1.766 0-3.195-1.431-3.195-3.198 0-0.883 0.358-1.682 0.935-2.259L29.18 28.989c0.579-0.577 1.379-0.937 2.261-0.937 0.901 0 1.715 0.373 2.295 0.973l7.348 7.592h19.7v-8.896h8.479v8.896H79.55c0.957 0 1.818 0.423 2.405 1.089l17.229 19.673C99.677 57.943 99.975 58.683 99.975 59.486zM22.589 58.375h6.974v-6.978h-6.974V58.375zM33.104 58.375h6.973v-6.978h-6.973V58.375zM22.589 68.361h6.974v-6.978h-6.974V68.361zM33.104 68.397h6.973v-6.979h-6.973V68.397z" fill="black"></path></svg></g></svg></g></svg></g><defs><mask></mask></defs></svg><rect width="395.52" height="100.45549618484519" fill="black" stroke="none" visibility="hidden"></rect></g></mask></svg><rect width="395.52" height="100.45549618484519" fill="black" stroke="none" visibility="hidden"></rect></g></mask></svg><rect width="395.52" height="100.45549618484519" fill="black" stroke="none" visibility="hidden"></rect></g></mask><linearGradient x1="0" x2="1" y1="0.578" y2="0.595" id="5026039f-3b0b-448e-8940-bbf2a3239662"><stop stop-color="#6ee2f5" offset="0"></stop><stop stop-color="#6454f0" offset="1"></stop></linearGradient><rect width="395.52" height="100.45549618484519" fill="url(#5026039f-3b0b-448e-8940-bbf2a3239662)" mask="url(#dfeee0fe-46ba-483a-b74f-67f4fb853ef6)" data-fill-palette-color="accent"></rect></svg><rect width="395.52" height="100.45549618484519" fill="none" stroke="none" visibility="hidden"></rect></g></svg></g></svg>