<svg width="265.56000366210935" height="115.66548079719647" viewBox="0 0 350.00000000000006 152.4435823194521" class="looka-1j8o68f"><defs id="SvgjsDefs1041"></defs><g id="SvgjsG1042" featurekey="mugSzh-0" transform="matrix(0.2868264663989965,0,0,0.2868264663989965,105,0)" fill="#000000"><polygon xmlns="http://www.w3.org/2000/svg" points="244.1,0 244,0.1 243.9,0 103.1,83.1 103.1,50 57.9,50 57.9,109.6 58.1,109.6 0,143.9 15.3,169.8 244,34.9   472.8,169.8 488.1,143.9 "></polygon></g><g id="SvgjsG1043" featurekey="PPkF4s-0" transform="matrix(3.4040075177966678,0,0,3.4040075177966678,-5.242171447554287,53.27348565733714)" fill="#000000"><path d="M4.7 11.38 l7 0 l0 2.76 l-7 0 l0 3.12 l7.92 0 l0 2.74 l-11.08 0 l0 -14.62 l11.08 0 l0 2.74 l-7.92 0 l0 3.26 z M18.34 10.1 q0.38 -0.52 1.31 -0.93 t2.03 -0.41 q1.7 0 2.95 0.76 t1.91 2.07 t0.66 2.91 t-0.66 2.91 t-1.91 2.07 t-2.95 0.76 q-1.14 0 -2.01 -0.39 t-1.33 -0.99 l0 4.68 l-2.96 0 l0 -14.54 l2.96 0 l0 1.1 z M19.04 16.75 q0.82 0.87 2.2 0.87 q1.4 0 2.21 -0.87 t0.81 -2.25 q0 -1.34 -0.83 -2.22 t-2.19 -0.88 q-1.4 0 -2.21 0.83 t-0.81 2.27 q0 1.38 0.82 2.25 z M32.44 7.369999999999999 q-0.48 0.47 -1.16 0.47 q-0.7 0 -1.19 -0.47 t-0.49 -1.15 q0 -0.66 0.49 -1.13 t1.19 -0.47 q0.68 0 1.16 0.47 t0.48 1.13 q0 0.68 -0.48 1.15 z M29.779999999999998 9.02 l3 0 l0 10.98 l-3 0 l0 -10.98 z M38.22 19.51 q-1.38 -0.77 -2.19 -2.09 t-0.81 -2.88 t0.81 -2.87 t2.18 -2.08 t2.99 -0.77 q1.74 0 3.15 0.83 t2.25 2.37 l-2.7 1.06 q-0.48 -0.82 -1.18 -1.23 t-1.52 -0.41 q-1.3 0 -2.15 0.88 t-0.85 2.22 t0.86 2.22 t2.16 0.88 q1.8 0 2.78 -1.6 l2.54 1 q-1.58 3.24 -5.32 3.24 q-1.62 0 -3 -0.77 z M52.06 11.38 l7 0 l0 2.76 l-7 0 l0 3.12 l7.92 0 l0 2.74 l-11.08 0 l0 -14.62 l11.08 0 l0 2.74 l-7.92 0 l0 3.26 z M62.12 18.54 l1.56 -2.08 q0.72 0.5 1.68 0.84 t1.88 0.34 q0.68 0 1.13 -0.28 t0.45 -0.7 t-0.51 -0.59 t-0.99 -0.24 t-0.62 -0.09 q-1.2 -0.2 -2.07 -0.48 t-1.58 -1 t-0.71 -1.98 q0 -2.08 1.51 -2.78 t3.03 -0.7 q1.3 0 2.4 0.38 t2.18 1.2 l-1.56 2.04 q-0.78 -0.46 -1.54 -0.74 t-1.58 -0.28 q-0.5 0 -0.97 0.22 t-0.47 0.6 q0 0.48 0.65 0.68 t1.43 0.3 q1.4 0.24 2.24 0.5 t1.49 0.97 t0.65 2.01 q0 1.72 -1.18 2.65 t-3.34 0.93 q-3 0 -5.16 -1.72 z M77.88 16.08 q0 0.7 0.24 1.17 t1.12 0.47 q0.4 0 0.76 -0.04 l0 2.52 q-0.72 0.08 -1.34 0.08 q-1.28 0 -2.07 -0.21 t-1.23 -0.81 t-0.44 -1.72 l0 -6.1 l-1.34 0 l0 -2.62 l1.34 0 l0 -2.94 l2.96 0 l0 2.94 l2.2 0 l0 2.62 l-2.2 0 l0 4.64 z M91.96000000000001 11.08 q-0.46 0.8 -1.2 1.18 q0.92 0.38 1.57 1.32 t0.65 2 q0 1.54 -0.75 2.6 t-2.02 1.58 t-2.87 0.52 t-2.87 -0.52 t-2.02 -1.58 t-0.75 -2.6 q0 -1.1 0.68 -2.05 t1.62 -1.29 q-0.7 -0.42 -1.22 -1.23 t-0.52 -1.67 q0 -1.18 0.68 -2.14 t1.85 -1.5 t2.55 -0.54 t2.55 0.54 t1.85 1.5 t0.68 2.14 q0 0.94 -0.46 1.74 z M85.99 10.78 q0.53 0.4 1.35 0.4 q0.8 0 1.34 -0.4 t0.54 -1.14 q0 -0.9 -0.52 -1.31 t-1.36 -0.41 t-1.36 0.42 t-0.52 1.3 q0 0.74 0.53 1.14 z M89.12 17.05 q0.68 -0.47 0.68 -1.47 q0 -0.9 -0.71 -1.44 t-1.75 -0.54 t-1.75 0.53 t-0.71 1.45 q0 0.98 0.69 1.46 t1.77 0.48 q1.1 0 1.78 -0.47 z M94.68 18.54 l1.56 -2.08 q0.72 0.5 1.68 0.84 t1.88 0.34 q0.68 0 1.13 -0.28 t0.45 -0.7 t-0.51 -0.59 t-0.99 -0.24 t-0.62 -0.09 q-1.2 -0.2 -2.07 -0.48 t-1.58 -1 t-0.71 -1.98 q0 -2.08 1.51 -2.78 t3.03 -0.7 q1.3 0 2.4 0.38 t2.18 1.2 l-1.56 2.04 q-0.78 -0.46 -1.54 -0.74 t-1.58 -0.28 q-0.5 0 -0.97 0.22 t-0.47 0.6 q0 0.48 0.65 0.68 t1.43 0.3 q1.4 0.24 2.24 0.5 t1.49 0.97 t0.65 2.01 q0 1.72 -1.18 2.65 t-3.34 0.93 q-3 0 -5.16 -1.72 z"></path></g><g id="SvgjsG1044" featurekey="uwAHB0-0" transform="matrix(0.5465035244111787,0,0,0.5465035244111787,34.0381536719516,140.00516145758257)" fill="#000000"><path d="M5.9 18.8 q3.04 0 4.8 -1.54 t1.78 -4.24 q0 -2.88 -1.75 -4.42 t-4.89 -1.56 l-2.76 0 l0 11.76 l2.82 0 z M6.18 5.84 q3.56 0 5.57 1.92 t2.05 5.26 q0 1.96 -0.89 3.55 t-2.56 2.51 t-4.09 0.92 l-4.5 0 l0 -14.16 l4.42 0 z M31.648 12.08 q1.54 0 2.38 -0.69 t0.84 -1.83 t-0.82 -1.82 t-2.44 -0.7 l-2.86 0 l0 5.04 l2.9 0 z M31.247999999999998 5.84 q4.9 0 4.94 3.72 q0 3.14 -3.62 3.64 l4.12 6.8 l-1.5 0 l-3.98 -6.72 l-2.46 0 l0 6.72 l-1.32 0 l0 -14.16 l3.82 0 z M58.616 5.84 l0 1.2 l-7.34 0 l0 5.04 l6.88 0 l0 1.2 l-6.88 0 l0 5.52 l7.66 0 l0 1.2 l-8.98 0 l0 -14.16 l8.66 0 z M74.14399999999999 15.04 l6.5 0 l-3.2 -7.76 z M78.184 5.84 l5.96 14.16 l-1.48 0 l-1.54 -3.76 l-7.5 0 l-1.6 3.76 l-1.38 0 l6.18 -14.16 l1.36 0 z M98.69200000000001 5.84 l5.16 11.88 l5.16 -11.88 l1.88 0 l0 14.16 l-1.32 0 l0 -12.48 l-0.04 0 l-5.4 12.48 l-0.58 0 l-5.48 -12.48 l-0.04 0 l0 12.48 l-1.32 0 l0 -14.16 l1.98 0 z M142.488 5.84 l0 14.16 l-1.32 0 l0 -14.16 l1.32 0 z M166.336 5.84 l0 1.2 l-4.84 0 l0 12.96 l-1.32 0 l0 -12.96 l-4.84 0 l0 -1.2 l11 0 z M180.964 18.2 l-1.54 4.56 l-1.18 0 l1.32 -4.56 l1.4 0 z M212.23999999999998 5.84 l0 12.96 l6.6 0 l0 1.2 l-7.92 0 l0 -14.16 l1.32 0 z M232.908 5.84 l0 14.16 l-1.32 0 l0 -14.16 l1.32 0 z M251.49599999999998 5.48 q2.46 0 3.86 1.78 l-1.14 0.82 q-1.04 -1.4 -2.76 -1.4 q-1.4 0 -2.27 0.72 t-0.91 1.96 q0 1.08 0.66 1.75 t2.3 1.13 q2.16 0.64 2.88 1.13 t1.09 1.21 t0.37 1.8 q0 1.72 -1.23 2.83 t-3.17 1.15 q-3.06 0 -4.6 -2.14 l1.26 -0.84 q1.06 1.76 3.24 1.78 q1.42 0 2.3 -0.79 t0.88 -1.99 q0 -0.7 -0.25 -1.15 t-0.76 -0.78 t-1.3 -0.6 t-1.85 -0.63 q-1.6 -0.52 -2.37 -1.46 t-0.77 -2.4 q0 -1.72 1.29 -2.8 t3.25 -1.08 z M278.544 5.84 l0 1.2 l-4.84 0 l0 12.96 l-1.32 0 l0 -12.96 l-4.84 0 l0 -1.2 l11 0 z M308.58 5.84 l0 14.16 l-1.32 0 l0 -14.16 l1.32 0 z M332.428 5.84 l0 1.2 l-4.84 0 l0 12.96 l-1.32 0 l0 -12.96 l-4.84 0 l0 -1.2 l11 0 z M347.05600000000004 18.2 l-1.54 4.56 l-1.18 0 l1.32 -4.56 l1.4 0 z M378.332 5.84 l0 12.96 l6.6 0 l0 1.2 l-7.92 0 l0 -14.16 l1.32 0 z M399 5.84 l0 14.16 l-1.32 0 l0 -14.16 l1.32 0 z M412.968 5.84 l4.56 12.42 l4.6 -12.42 l1.4 0 l-5.38 14.16 l-1.32 0 l-5.28 -14.16 l1.42 0 z M444.73600000000005 5.84 l0 1.2 l-7.34 0 l0 5.04 l6.88 0 l0 1.2 l-6.88 0 l0 5.52 l7.66 0 l0 1.2 l-8.98 0 l0 -14.16 l8.66 0 z M475.79200000000003 5.84 l0 14.16 l-1.32 0 l0 -14.16 l1.32 0 z M499.64000000000004 5.84 l0 1.2 l-4.84 0 l0 12.96 l-1.32 0 l0 -12.96 l-4.84 0 l0 -1.2 l11 0 z M513.148 18.2 q0.4 0 0.68 0.28 t0.28 0.68 t-0.28 0.68 t-0.68 0.28 t-0.68 -0.28 t-0.28 -0.68 t0.28 -0.68 t0.68 -0.28 z"></path></g></svg>