<svg width="265.56000366210935" height="71.89551318657108" viewBox="0 0 410 111" class="looka-1j8o68f"><defs id="SvgjsDefs2290"></defs><g id="SvgjsG2291" featurekey="rootContainer" transform="matrix(1,0,0,1,0,0)" fill="#000000">    <rect width="410" height="111"></rect></g><g id="SvgjsG2292" featurekey="QMusi1-0" transform="matrix(0.9270026363375279,0,0,0.9270026363375279,10.081071968000172,4.560719842668522)" fill="#64ee85"><g xmlns="http://www.w3.org/2000/svg"><path fill="#64ee85" d="M92.3,56L73.7,37.4c-0.3-0.3-0.6-0.4-1-0.4h-4.3v-7.3h-4.6V37H45.9c-0.1,0-0.1,0-0.2-0.1l-6.7-6.7   c-0.8-0.8-2.1-0.8-2.8,0l-6.6,6.6L11.3,55.2c-0.8,0.8-0.8,2.1,0,2.8c0.8,0.8,2,0.8,2.8,0l15.5-15.5l5.6-5.6l2.4-2.4   c0.1-0.1,0.2-0.1,0.2,0l2.4,2.4l18.6,18.6l2.4,2.4c0.4,0.4,0.9,0.6,1.4,0.6h28.7c0.6,0,1.1-0.4,1.4-0.9   C92.9,57.1,92.7,56.5,92.3,56z"></path><rect x="32.1" y="47.7" fill="#64ee85" width="4.8" height="4.8"></rect><rect x="38.2" y="47.7" fill="#64ee85" width="4.8" height="4.8"></rect><rect x="38.2" y="53.8" fill="#64ee85" width="4.8" height="4.8"></rect><rect x="32.1" y="53.8" fill="#64ee85" width="4.8" height="4.8"></rect></g></g><g id="SvgjsG2293" featurekey="UyNsn2-0" transform="matrix(3.311326013728716,0,0,3.311326013728716,111.69540502555682,-3.8745513308152226)" fill="#ffffff"><path d="M1.3 5.699999999999999 l8.42 0 c-0.13334 0.50666 -0.26668 0.98666 -0.40002 1.44 s-0.26668 0.92 -0.40002 1.4 l-4.4 0 c0 0.05334 0.0066602 0.13 0.02 0.23 s0.02 0.17666 0.02 0.23 l0 2.1 l4.04 0 l0 2.86 l-4.04 0 l0 2.74 l-0.04 0.46 l5.28 0 l0 2.84 l-8.5 0 l0 -14.3 z M11.620000000000001 12.02 l-1.9999 0.000019531 l1.32 -2.46 l3.16 0 l0.26 1.16 c0.30666 -0.36 0.68332 -0.65666 1.13 -0.89 s0.97 -0.35 1.57 -0.35 c0.58666 0 1.1333 0.10334 1.64 0.31 s0.94666 0.52332 1.32 0.94998 s0.66668 0.96332 0.88002 1.61 s0.32 1.4167 0.32 2.31 c0 1.7333 -0.48666 3.0766 -1.46 4.03 s-2.3466 1.43 -4.12 1.43 c-0.33334 0 -0.66668 -0.02 -1 -0.06 l0 4.62 l-3.02 0 l0 -12.66 z M14.64 17.4 c0.33334 0.06666 0.67332 0.10002 1.02 0.10002 c0.74666 0 1.34 -0.22 1.78 -0.66 s0.66 -1.14 0.66 -2.1 c0 -0.73334 -0.15334 -1.34 -0.46 -1.82 s-0.77332 -0.72 -1.4 -0.72 c-0.57334 0 -0.98334 0.20334 -1.23 0.61 s-0.37 0.90332 -0.37 1.49 l0 3.1 z M26.06 9.56 l0 10.44 l-3.02 0 l0 -7.22 l0.1 -0.72 l-1.72 0 l1.36 -2.5 l3.28 0 z M25.979999999999997 8.7 l-3 0 l0 -2.72 l3 0 l0 2.72 z M36.48 18.88 c-0.53334 0.42666 -1.1067 0.74334 -1.72 0.95 s-1.24 0.31 -1.88 0.31 c-0.69334 0 -1.3467 -0.09334 -1.96 -0.28 s-1.15 -0.49 -1.61 -0.91 s-0.82334 -0.96666 -1.09 -1.64 s-0.4 -1.49 -0.4 -2.45 c0 -0.94666 0.13334 -1.7567 0.4 -2.43 s0.63 -1.2267 1.09 -1.66 s0.99666 -0.75334 1.61 -0.96 s1.2667 -0.31 1.96 -0.31 c0.42666 0 0.89332 0.06 1.4 0.18 s1.0133 0.3 1.52 0.54 l-1.32 2.16 c-0.22666 -0.10666 -0.49332 -0.18332 -0.79998 -0.22998 s-0.57332 -0.07 -0.79998 -0.07 c-0.61334 0 -1.1233 0.21666 -1.53 0.65 s-0.61 1.1433 -0.61 2.13 c0 0.50666 0.05334 0.92 0.16 1.24 s0.25666 0.58 0.45 0.78 s0.42 0.34666 0.68 0.44 s0.54334 0.15334 0.85 0.18 c0.41334 0.04 0.82334 0.0066602 1.23 -0.1 s0.77 -0.28 1.09 -0.52 z M37.879999999999995 5.699999999999999 l8.42 0 c-0.13334 0.50666 -0.26668 0.98666 -0.40002 1.44 s-0.26668 0.92 -0.40002 1.4 l-4.4 0 c0 0.05334 0.0066602 0.13 0.02 0.23 s0.02 0.17666 0.02 0.23 l0 2.1 l4.04 0 l0 2.86 l-4.04 0 l0 2.74 l-0.04 0.46 l5.28 0 l0 2.84 l-8.5 0 l0 -14.3 z M50.459999999999994 15.68 c-0.72 -0.21334 -1.3133 -0.53998 -1.78 -0.97998 s-0.7 -1.0733 -0.7 -1.9 c0 -1.04 0.36666 -1.8533 1.1 -2.44 s1.7467 -0.88 3.04 -0.88 c0.49334 0 1.0033 0.05334 1.53 0.16 s1.1833 0.3 1.97 0.58 l-1.2 2.16 c-0.41334 -0.14666 -0.77 -0.25666 -1.07 -0.33 s-0.64334 -0.11 -1.03 -0.11 c-0.36 0 -0.64334 0.05 -0.85 0.15 s-0.31 0.26334 -0.31 0.49 c0 0.18666 0.07666 0.32 0.23 0.4 s0.35668 0.16666 0.61002 0.26 l1.08 0.32 c0.36 0.10666 0.69666 0.23332 1.01 0.37998 s0.58 0.33 0.8 0.55 s0.39334 0.49666 0.52 0.83 s0.19 0.74 0.19 1.22 c0 0.50666 -0.10334 0.97666 -0.31 1.41 s-0.50666 0.81 -0.9 1.13 s-0.87334 0.57 -1.44 0.75 s-1.21 0.27 -1.93 0.27 c-0.28 0 -0.55 -0.01 -0.81 -0.03 s-0.51666 -0.05334 -0.77 -0.1 s-0.52 -0.11 -0.8 -0.19 s-0.58 -0.17334 -0.9 -0.28 c0.02666 -0.09334 0.05332 -0.2 0.07998 -0.32 s0.06666 -0.27 0.12 -0.45 s0.11334 -0.39666 0.18 -0.65 s0.15332 -0.56668 0.25998 -0.94002 c0.56 0.14666 1.03 0.25332 1.41 0.31998 s0.76334 0.1 1.15 0.1 c0.16 0 0.33 -0.01334 0.51 -0.04 s0.35 -0.07332 0.51 -0.13998 s0.29334 -0.15332 0.4 -0.25998 s0.16 -0.24666 0.16 -0.42 c0 -0.2 -0.07 -0.34 -0.21 -0.42 s-0.35 -0.16666 -0.63 -0.26 z M57.89999999999999 12.059999999999999 l-1.24 0 l0 -2.52 l1.24 0 l0 -2.84 l3 0 l0 2.84 l2.48 0 l-1.4 2.52 l-1.18 0 l0.1 0.64 l0 3.14 c0 0.34666 0.02334 0.62666 0.07 0.84 s0.12 0.38 0.22 0.5 s0.22666 0.20334 0.38 0.25 s0.33 0.07 0.53 0.07 c0.14666 0 0.32666 -0.01666 0.54 -0.05 s0.44 -0.07 0.68 -0.11 l0.16 1.34 l0.12 1.2 c-0.38666 0.08 -0.74 0.14 -1.06 0.18 s-0.64666 0.06 -0.98 0.06 c-1.24 0 -2.16 -0.28666 -2.76 -0.86 s-0.9 -1.52 -0.9 -2.84 l0 -4.36 z M64.69999999999999 16.240000000000002 c0 -0.44 0.05666 -0.84334 0.17 -1.21 s0.26668 -0.7 0.46002 -1 s0.41 -0.56334 0.65 -0.79 s0.49334 -0.42 0.76 -0.58 c-0.42666 -0.34666 -0.77 -0.77666 -1.03 -1.29 s-0.39 -1.07 -0.39 -1.67 c0 -0.56 0.11334 -1.07 0.34 -1.53 s0.54 -0.85334 0.94 -1.18 s0.87334 -0.57666 1.42 -0.75 s1.1333 -0.26 1.76 -0.26 s1.2133 0.08666 1.76 0.26 s1.02 0.42334 1.42 0.75 s0.71334 0.72 0.94 1.18 s0.34 0.97 0.34 1.53 c0 0.6 -0.14334 1.15 -0.43 1.65 s-0.66332 0.93666 -1.13 1.31 c0.28 0.16 0.55 0.35 0.81 0.57 s0.49 0.47334 0.69 0.76 s0.36 0.61666 0.48 0.99 s0.18 0.79334 0.18 1.26 c0 0.73334 -0.14334 1.3533 -0.43 1.86 s-0.66666 0.91666 -1.14 1.23 s-1.0133 0.54 -1.62 0.68 s-1.23 0.21 -1.87 0.21 s-1.2633 -0.07 -1.87 -0.21 s-1.15 -0.36666 -1.63 -0.68 s-0.86334 -0.72334 -1.15 -1.23 s-0.43 -1.1267 -0.43 -1.86 z M71.67999999999999 16 c0 -0.53334 -0.18 -0.95668 -0.54 -1.27 s-0.82 -0.56334 -1.38 -0.75 c-0.56 0.18666 -1.0167 0.43666 -1.37 0.75 s-0.53 0.73668 -0.53 1.27 s0.17 0.93334 0.51 1.2 s0.81 0.4 1.41 0.4 c1.2667 0 1.9 -0.53334 1.9 -1.6 z M68.25999999999999 9.82 c0 0.46666 0.14 0.84336 0.42 1.13 s0.64666 0.51 1.1 0.67 c0.42666 -0.16 0.79 -0.38666 1.09 -0.68 s0.45 -0.66668 0.45 -1.12 c0 -0.38666 -0.13 -0.70332 -0.39 -0.94998 s-0.64334 -0.37 -1.15 -0.37 s-0.88666 0.12334 -1.14 0.37 s-0.38 0.56332 -0.38 0.94998 z M78.85999999999999 15.68 c-0.72 -0.21334 -1.3133 -0.53998 -1.78 -0.97998 s-0.7 -1.0733 -0.7 -1.9 c0 -1.04 0.36666 -1.8533 1.1 -2.44 s1.7467 -0.88 3.04 -0.88 c0.49334 0 1.0033 0.05334 1.53 0.16 s1.1833 0.3 1.97 0.58 l-1.2 2.16 c-0.41334 -0.14666 -0.77 -0.25666 -1.07 -0.33 s-0.64334 -0.11 -1.03 -0.11 c-0.36 0 -0.64334 0.05 -0.85 0.15 s-0.31 0.26334 -0.31 0.49 c0 0.18666 0.07666 0.32 0.23 0.4 s0.35668 0.16666 0.61002 0.26 l1.08 0.32 c0.36 0.10666 0.69666 0.23332 1.01 0.37998 s0.58 0.33 0.8 0.55 s0.39334 0.49666 0.52 0.83 s0.19 0.74 0.19 1.22 c0 0.50666 -0.10334 0.97666 -0.31 1.41 s-0.50666 0.81 -0.9 1.13 s-0.87334 0.57 -1.44 0.75 s-1.21 0.27 -1.93 0.27 c-0.28 0 -0.55 -0.01 -0.81 -0.03 s-0.51666 -0.05334 -0.77 -0.1 s-0.52 -0.11 -0.8 -0.19 s-0.58 -0.17334 -0.9 -0.28 c0.02666 -0.09334 0.05332 -0.2 0.07998 -0.32 s0.06666 -0.27 0.12 -0.45 s0.11334 -0.39666 0.18 -0.65 s0.15332 -0.56668 0.25998 -0.94002 c0.56 0.14666 1.03 0.25332 1.41 0.31998 s0.76334 0.1 1.15 0.1 c0.16 0 0.33 -0.01334 0.51 -0.04 s0.35 -0.07332 0.51 -0.13998 s0.29334 -0.15332 0.4 -0.25998 s0.16 -0.24666 0.16 -0.42 c0 -0.2 -0.07 -0.34 -0.21 -0.42 s-0.35 -0.16666 -0.63 -0.26 z"></path></g><g id="SvgjsG2294" featurekey="sloganFeature-0" transform="matrix(0.4777300607008141,0,0,0.4777300607008141,115.22607735633655,85.48713954357054)" fill="#ffffff"><path d="M1.62 20 l0 -14.36 l5.82 0 c3.74 0 6.04 2.84 6.04 6.98 c0 3.22 -1.4 7.38 -6.12 7.38 l-5.74 0 z M3.56 7.300000000000001 l0 11.04 l3.76 0 c2.52 0 4.16 -1.98 4.16 -5.6 s-1.66 -5.44 -4.3 -5.44 l-3.62 0 z M18.14 13.84 l0 6.16 l-1.94 0 l0 -14.36 l6.64 0 c2.36 0 4.72 0.82 4.72 3.86 c0 2.12 -1.08 2.9 -2 3.44 c0.82 0.34 1.64 0.7 1.72 2.7 l0.12 2.6 c0.02 0.8 0.12 1.1 0.72 1.44 l0 0.32 l-2.38 0 c-0.28 -0.88 -0.34 -3.06 -0.34 -3.6 c0 -1.18 -0.24 -2.56 -2.56 -2.56 l-4.7 0 z M18.14 7.300000000000001 l0 4.88 l4.5 0 c1.42 0 2.92 -0.36 2.92 -2.48 c0 -2.22 -1.62 -2.4 -2.58 -2.4 l-4.84 0 z M41.2 18.28 l0 1.72 l-10.6 0 l0 -14.36 l10.46 0 l0 1.72 l-8.52 0 l0 4.4 l7.86 0 l0 1.72 l-7.86 0 l0 4.8 l8.66 0 z M51.76 15.82 l-5.76 0 l-1.5 4.18 l-2 0 l5.4 -14.36 l2.2 0 l5.2 14.36 l-2.12 0 z M46.6 14.1 l4.46 0 l-2.12 -6.32 l-0.04 0 z M70.78 20 l-1.88 0 l0 -8.48 c0 -0.42 0.04 -2.24 0.04 -3.58 l-0.04 0 l-4.04 12.06 l-1.92 0 l-4.04 -12.04 l-0.04 0 c0 1.32 0.04 3.14 0.04 3.56 l0 8.48 l-1.88 0 l0 -14.36 l2.78 0 l4.1 12.14 l0.04 0 l4.08 -12.14 l2.76 0 l0 14.36 z M81.54 5.640000000000001 l0 14.36 l-1.94 0 l0 -14.36 l1.94 0 z M83.62 7.359999999999999 l0 -1.72 l11.66 0 l0 1.72 l-4.86 0 l0 12.64 l-1.94 0 l0 -12.64 l-4.86 0 z M97.3 20 l0 -2.12 l2.08 0 l0 1.96 c0 2.72 -1.68 3.04 -2.08 3.1 l0 -0.92 c0.84 -0.08 1.06 -1.08 1.06 -2.02 l-1.06 0 z M110.14 5.640000000000001 l0 12.64 l7.28 0 l0 1.72 l-9.22 0 l0 -14.36 l1.94 0 z M121.56000000000002 5.640000000000001 l0 14.36 l-1.94 0 l0 -14.36 l1.94 0 z M135.36 9.84 l-1.82 0 c-0.1 -2.22 -1.94 -2.92 -3.56 -2.92 c-1.22 0 -3.28 0.34 -3.28 2.52 c0 1.22 0.86 1.62 1.7 1.82 l4.1 0.94 c1.86 0.44 3.26 1.56 3.26 3.84 c0 3.4 -3.16 4.34 -5.62 4.34 c-2.66 0 -3.7 -0.8 -4.34 -1.38 c-1.22 -1.1 -1.46 -2.3 -1.46 -3.64 l1.82 0 c0 2.6 2.12 3.36 3.96 3.36 c1.4 0 3.76 -0.36 3.76 -2.42 c0 -1.5 -0.7 -1.98 -3.06 -2.54 l-2.94 -0.68 c-0.94 -0.22 -3.06 -0.88 -3.06 -3.38 c0 -2.24 1.46 -4.44 4.94 -4.44 c5.02 0 5.52 3 5.6 4.58 z M136.98000000000002 7.359999999999999 l0 -1.72 l11.66 0 l0 1.72 l-4.86 0 l0 12.64 l-1.94 0 l0 -12.64 l-4.86 0 z M158.24 5.640000000000001 l0 14.36 l-1.94 0 l0 -14.36 l1.94 0 z M160.32000000000002 7.359999999999999 l0 -1.72 l11.66 0 l0 1.72 l-4.86 0 l0 12.64 l-1.94 0 l0 -12.64 l-4.86 0 z M174.00000000000003 20 l0 -2.12 l2.08 0 l0 1.96 c0 2.72 -1.68 3.04 -2.08 3.1 l0 -0.92 c0.84 -0.08 1.06 -1.08 1.06 -2.02 l-1.06 0 z M186.84000000000003 5.640000000000001 l0 12.64 l7.28 0 l0 1.72 l-9.22 0 l0 -14.36 l1.94 0 z M198.26000000000002 5.640000000000001 l0 14.36 l-1.94 0 l0 -14.36 l1.94 0 z M206.76000000000002 17.88 l4.06 -12.24 l2.18 0 l-5.24 14.36 l-2.06 0 l-5.24 -14.36 l2.16 0 l4.1 12.24 l0.04 0 z M225.72000000000003 18.28 l0 1.72 l-10.6 0 l0 -14.36 l10.46 0 l0 1.72 l-8.52 0 l0 4.4 l7.86 0 l0 1.72 l-7.86 0 l0 4.8 l8.66 0 z M236.06000000000003 5.640000000000001 l0 14.36 l-1.94 0 l0 -14.36 l1.94 0 z M238.14000000000004 7.359999999999999 l0 -1.72 l11.66 0 l0 1.72 l-4.86 0 l0 12.64 l-1.94 0 l0 -12.64 l-4.86 0 z M253.90000000000003 17.88 l0 2.12 l-2.08 0 l0 -2.12 l2.08 0 z"></path></g></svg>